M48
; DRILL file {KiCad (5.1.0-0)} date Tuesday, May 28, 2019 at 10:46:02 PM
; FORMAT={-:-/ absolute / inch / decimal}
; #@! TF.CreationDate,2019-05-28T22:46:02-04:00
; #@! TF.GenerationSoftware,Kicad,Pcbnew,(5.1.0-0)
; #@! TF.FileFunction,Plated,1,2,PTH
FMAT,2
INCH
T1C0.0157
T2C0.0197
%
G90
G05
T1
X4.0794Y-2.7482
X4.0945Y-2.8543
X4.1142Y-4.3701
X4.153Y-3.7758
X4.1633Y-2.9863
X4.1955Y-2.7176
X4.2028Y-3.8581
X4.2164Y-3.4209
X4.2649Y-2.7027
X4.3012Y-4.3763
X4.3012Y-4.4832
X4.3508Y-3.7882
X4.3878Y-2.638
X4.4685Y-4.0157
X4.5866Y-3.8189
X4.6063Y-3.2874
X4.7578Y-2.757
X4.7578Y-2.8795
X4.7944Y-3.5521
X4.8228Y-2.9134
X4.9433Y-3.6311
X4.9859Y-2.6125
X5.0146Y-3.5901
X5.0151Y-3.1645
X5.0156Y-3.2927
X5.0157Y-3.3671
X5.0458Y-3.6056
X5.0893Y-3.7528
X5.1148Y-3.4022
X5.1896Y-2.8038
X5.214Y-3.6435
X5.2784Y-2.656
X5.2953Y-3.2874
X5.3456Y-3.7043
X5.3544Y-3.7834
X5.3544Y-4.2751
X5.371Y-3.7287
X5.3828Y-2.9373
X5.4126Y-3.6983
X5.4154Y-3.9454
X5.4468Y-3.0013
X5.4549Y-3.4174
X5.4667Y-3.5601
X5.4705Y-4.1247
X5.4768Y-2.8818
X5.498Y-4.2026
X5.5018Y-2.9457
X5.5615Y-3.4303
X5.5642Y-3.1285
X5.5753Y-3.0132
X5.5841Y-3.7898
X5.6066Y-3.3362
X5.6325Y-4.1609
X5.6356Y-3.6379
X5.6359Y-3.3671
X5.6444Y-3.4954
X5.6462Y-3.1173
X5.6535Y-2.9364
X5.666Y-3.3967
X5.6777Y-3.6587
X5.6912Y-4.155
X5.6993Y-3.0858
X5.7036Y-3.7653
X5.731Y-3.7931
X5.7396Y-4.157
X5.7397Y-3.2574
X5.7448Y-4.2023
X5.7572Y-3.7178
X5.7587Y-2.9354
X5.761Y-3.0862
X5.7833Y-2.8791
X5.7944Y-3.7805
X5.8241Y-2.6845
X5.8344Y-3.7969
X5.8377Y-3.1552
X5.8391Y-4.1789
X5.8396Y-3.6506
X5.8495Y-2.9446
X5.8816Y-3.1902
X5.8858Y-3.5813
X5.8964Y-2.8506
X5.899Y-3.9119
X5.9196Y-3.3244
X5.9201Y-3.1178
X5.935Y-3.5692
X5.9384Y-3.7422
X5.9516Y-3.5972
X5.9611Y-3.4081
X5.9723Y-2.8627
X6.0081Y-2.9288
X6.0257Y-2.8631
X6.0526Y-3.7174
X6.0556Y-3.3955
X6.0566Y-3.2757
X6.0592Y-3.0911
X6.0636Y-3.626
X6.0729Y-3.5823
X6.0775Y-4.1377
X6.0976Y-3.6394
X6.1003Y-3.1513
X6.1018Y-3.2237
X6.1043Y-4.4053
X6.1067Y-3.891
X6.1219Y-3.427
X6.1245Y-4.4302
X6.1284Y-4.042
X6.1319Y-4.3804
X6.1351Y-3.3276
X6.1502Y-3.4089
X6.1813Y-3.2778
X6.2205Y-4.0354
X6.2724Y-3.5916
X6.2995Y-3.1027
X6.3001Y-4.2951
X6.3324Y-3.801
X6.378Y-3.9764
X6.3793Y-3.7427
X6.4108Y-3.751
X6.4173Y-3.0849
X6.42Y-3.1583
X6.4423Y-3.7758
X6.4618Y-3.7421
X6.4961Y-4.4094
X6.5204Y-3.2197
X6.5277Y-2.7523
X6.5364Y-3.7946
X6.5913Y-3.5818
X6.617Y-2.9861
X6.6565Y-2.7363
X6.6702Y-2.5912
X6.6752Y-2.93
X6.6752Y-3.6601
X6.6907Y-3.0001
X6.7013Y-3.8079
X6.7271Y-3.6987
X6.753Y-2.9522
X6.753Y-3.8105
X6.8096Y-3.7822
X6.98Y-3.9168
X7.0472Y-4.2445
X7.185Y-3.7008
X7.2244Y-3.1102
X7.2441Y-4.1535
X7.3612Y-3.8754
X7.4154Y-4.2764
T2
X6.9672Y-4.3788
X7.1272Y-4.3788
T0
M30
