G04 #@! TF.GenerationSoftware,KiCad,Pcbnew,(5.1.0-0)*
G04 #@! TF.CreationDate,2019-05-28T22:45:59-04:00*
G04 #@! TF.ProjectId,Business Card,42757369-6e65-4737-9320-436172642e6b,rev?*
G04 #@! TF.SameCoordinates,Original*
G04 #@! TF.FileFunction,Copper,L2,Bot*
G04 #@! TF.FilePolarity,Positive*
%FSLAX46Y46*%
G04 Gerber Fmt 4.6, Leading zero omitted, Abs format (unit mm)*
G04 Created by KiCad (PCBNEW (5.1.0-0)) date 2019-05-28 22:45:59*
%MOMM*%
%LPD*%
G04 APERTURE LIST*
%ADD10C,0.600000*%
%ADD11R,1.350000X1.350000*%
%ADD12C,0.250000*%
%ADD13C,0.254000*%
G04 APERTURE END LIST*
D10*
X176968000Y-111222000D03*
X181032000Y-111222000D03*
D11*
X189500000Y-67000000D03*
X187500000Y-67000000D03*
X185500000Y-67000000D03*
X183500000Y-67000000D03*
X181500000Y-67000000D03*
X179500000Y-67000000D03*
X177500000Y-67000000D03*
X175500000Y-67000000D03*
X173500000Y-67000000D03*
X171500000Y-67000000D03*
X169500000Y-67000000D03*
X167500000Y-67000000D03*
X165500000Y-67000000D03*
X163500000Y-67000000D03*
X161500000Y-67000000D03*
X159500000Y-67000000D03*
X157500000Y-67000000D03*
X155500000Y-67000000D03*
X153500000Y-67000000D03*
X151500000Y-67000000D03*
X149500000Y-67000000D03*
X147500000Y-67000000D03*
X145500000Y-67000000D03*
X143500000Y-67000000D03*
D10*
X105747700Y-75853000D03*
X131816500Y-71216300D03*
X126641300Y-66358700D03*
X169423800Y-65815600D03*
X141837300Y-96259900D03*
X136422700Y-94709500D03*
X143598100Y-74585300D03*
X146896900Y-73129200D03*
X183500000Y-79000000D03*
X182500000Y-94000000D03*
X184000000Y-105500000D03*
X165000000Y-112000000D03*
X116500000Y-97000000D03*
X113500000Y-102000000D03*
X104500000Y-111000000D03*
X117000000Y-83500000D03*
X104000000Y-72500000D03*
X162000000Y-101000000D03*
X158000000Y-102500000D03*
X134500000Y-83500000D03*
X122500000Y-74000000D03*
X168071400Y-75847500D03*
X143413600Y-79178800D03*
X132435600Y-92545300D03*
X143367500Y-88783100D03*
X172963700Y-96068400D03*
X144872100Y-95638100D03*
X128162400Y-91581200D03*
X141262800Y-87129000D03*
X136721900Y-74608500D03*
X120849200Y-70026700D03*
X120849200Y-73139000D03*
X107097200Y-86891000D03*
X188350000Y-108619700D03*
X136001800Y-108588500D03*
X136001800Y-96097800D03*
X135779400Y-94089200D03*
X177292500Y-99486500D03*
X137480400Y-93937200D03*
X179000000Y-107810100D03*
X138553400Y-86802300D03*
X166025000Y-96383700D03*
X155110000Y-98832500D03*
X163635400Y-95905600D03*
X134071500Y-67463200D03*
X111449900Y-67005800D03*
X147931500Y-68186000D03*
X154986600Y-81882200D03*
X144762200Y-78378700D03*
X127384700Y-80377600D03*
X121777800Y-90223900D03*
X142407900Y-84739100D03*
X155831600Y-84521600D03*
X129916900Y-86416000D03*
X151413100Y-86565800D03*
X154947700Y-80043800D03*
X143915800Y-86275300D03*
X145787200Y-82737500D03*
X154251100Y-90989700D03*
X143150700Y-85523200D03*
X127398700Y-85523200D03*
X127371100Y-91189500D03*
X154016400Y-92101600D03*
X186975000Y-98436300D03*
X149393700Y-81031200D03*
X153811000Y-86245500D03*
X105486700Y-95905500D03*
X153836700Y-83202200D03*
X160007900Y-78807800D03*
X164130300Y-95050600D03*
X145566800Y-96343700D03*
X148278700Y-80143000D03*
X163000000Y-78357500D03*
X139744600Y-74821400D03*
X106566500Y-69026500D03*
X127395600Y-83635800D03*
X149499300Y-90965900D03*
X149769500Y-72406200D03*
X153051700Y-72722600D03*
X151695700Y-72711900D03*
X152606800Y-74390500D03*
X154878800Y-92441100D03*
X146232800Y-94432200D03*
X148578500Y-74793000D03*
X165618700Y-81779200D03*
X157004600Y-83256900D03*
X154368100Y-105098100D03*
X170213300Y-96720500D03*
X169076200Y-69503200D03*
X141612700Y-76534900D03*
X150834800Y-95051100D03*
X167418400Y-90978000D03*
X165804700Y-69908200D03*
X139111900Y-73197600D03*
X108328400Y-68648900D03*
X151171100Y-91368800D03*
X103616200Y-69804900D03*
X138349800Y-76233900D03*
X138854100Y-90427400D03*
X171526400Y-74986000D03*
X171526400Y-96787700D03*
X143065600Y-105685700D03*
X148327100Y-92725300D03*
X143145300Y-92401800D03*
X150750000Y-90657900D03*
X150357100Y-84438500D03*
X169943000Y-76202100D03*
X170869400Y-93947800D03*
X148193700Y-96440800D03*
X153903500Y-78513700D03*
X150370600Y-79191100D03*
X169550900Y-74421700D03*
X169550900Y-92967300D03*
X147177200Y-96025800D03*
X155661500Y-102666100D03*
X125559500Y-92230800D03*
X159318300Y-91226400D03*
X153735200Y-94421900D03*
X144213200Y-92930800D03*
X163068700Y-80221400D03*
X146329200Y-78389800D03*
X146271100Y-74558700D03*
X156214800Y-86587000D03*
X145785000Y-105588000D03*
X148313000Y-106143600D03*
X155496700Y-87046800D03*
X141329900Y-79464600D03*
X129267000Y-95321300D03*
X137550000Y-100214400D03*
X109250000Y-111158200D03*
X155750000Y-111261900D03*
X139650000Y-106745500D03*
X106750000Y-97996700D03*
X138950000Y-104767400D03*
X110510000Y-96220800D03*
X109250000Y-113874000D03*
X155050000Y-111893400D03*
X162033700Y-95064000D03*
X149835000Y-99361400D03*
X144556300Y-105536500D03*
X162834100Y-95275800D03*
X160022600Y-109094700D03*
X155561500Y-112527800D03*
X160844200Y-96544500D03*
X145918200Y-106738000D03*
D12*
X105747700Y-75853000D02*
X110384400Y-71216300D01*
X110384400Y-71216300D02*
X131816500Y-71216300D01*
X126641300Y-66358700D02*
X127480500Y-65519500D01*
X127480500Y-65519500D02*
X169127700Y-65519500D01*
X169127700Y-65519500D02*
X169423800Y-65815600D01*
X141837300Y-96259900D02*
X137973100Y-96259900D01*
X137973100Y-96259900D02*
X136422700Y-94709500D01*
X145618800Y-72564600D02*
X146183400Y-73129200D01*
X146183400Y-73129200D02*
X146896900Y-73129200D01*
X143500000Y-67000000D02*
X143500000Y-70445800D01*
X143500000Y-70445800D02*
X145618800Y-72564600D01*
X145618800Y-72564600D02*
X143598100Y-74585300D01*
X145500000Y-67000000D02*
X143500000Y-67000000D01*
X168071400Y-75847500D02*
X167988000Y-75930900D01*
X167988000Y-75930900D02*
X158649300Y-75930900D01*
X158649300Y-75930900D02*
X157271900Y-77308300D01*
X157271900Y-77308300D02*
X146769100Y-77308300D01*
X146769100Y-77308300D02*
X146663800Y-77203000D01*
X146663800Y-77203000D02*
X145048000Y-77203000D01*
X145048000Y-77203000D02*
X143413600Y-78837400D01*
X143413600Y-78837400D02*
X143413600Y-79178800D01*
X143367500Y-88783100D02*
X139605300Y-92545300D01*
X139605300Y-92545300D02*
X132435600Y-92545300D01*
X128162400Y-91581200D02*
X136810600Y-91581200D01*
X136810600Y-91581200D02*
X141262800Y-87129000D01*
X144872100Y-95638100D02*
X145803200Y-95638100D01*
X145803200Y-95638100D02*
X147239600Y-97074500D01*
X147239600Y-97074500D02*
X153743600Y-97074500D01*
X153743600Y-97074500D02*
X153961900Y-96856200D01*
X153961900Y-96856200D02*
X157095300Y-96856200D01*
X157095300Y-96856200D02*
X159969300Y-93982200D01*
X159969300Y-93982200D02*
X166390600Y-93982200D01*
X166390600Y-93982200D02*
X168476800Y-96068400D01*
X168476800Y-96068400D02*
X172963700Y-96068400D01*
X107097200Y-86891000D02*
X120849200Y-73139000D01*
X136721900Y-74608500D02*
X136721800Y-74608500D01*
X136721800Y-74608500D02*
X136721800Y-74491700D01*
X136721800Y-74491700D02*
X132256800Y-70026700D01*
X132256800Y-70026700D02*
X120849200Y-70026700D01*
X136001800Y-108588500D02*
X136283200Y-108869900D01*
X136283200Y-108869900D02*
X149597800Y-108869900D01*
X149597800Y-108869900D02*
X149998400Y-108469300D01*
X149998400Y-108469300D02*
X188199600Y-108469300D01*
X188199600Y-108469300D02*
X188350000Y-108619700D01*
X135779400Y-94089200D02*
X135779400Y-95875400D01*
X135779400Y-95875400D02*
X136001800Y-96097800D01*
X177292500Y-99486500D02*
X168134900Y-90328900D01*
X168134900Y-90328900D02*
X158522000Y-90328900D01*
X158522000Y-90328900D02*
X155458600Y-93392300D01*
X155458600Y-93392300D02*
X153707300Y-93392300D01*
X153707300Y-93392300D02*
X152698300Y-94401300D01*
X152698300Y-94401300D02*
X150346300Y-94401300D01*
X150346300Y-94401300D02*
X149690100Y-95057500D01*
X149690100Y-95057500D02*
X145175900Y-95057500D01*
X145175900Y-95057500D02*
X145131200Y-95012800D01*
X145131200Y-95012800D02*
X138556000Y-95012800D01*
X138556000Y-95012800D02*
X137480400Y-93937200D01*
X179000000Y-107810100D02*
X178791100Y-108019000D01*
X178791100Y-108019000D02*
X149811800Y-108019000D01*
X149811800Y-108019000D02*
X149455900Y-108374900D01*
X149455900Y-108374900D02*
X143508700Y-108374900D01*
X143508700Y-108374900D02*
X131129500Y-95995700D01*
X131129500Y-95995700D02*
X128407700Y-95995700D01*
X128407700Y-95995700D02*
X124902100Y-92490100D01*
X124902100Y-92490100D02*
X124902100Y-92003900D01*
X124902100Y-92003900D02*
X127011600Y-89894400D01*
X127011600Y-89894400D02*
X135461300Y-89894400D01*
X135461300Y-89894400D02*
X138553400Y-86802300D01*
X155110000Y-98832500D02*
X157666600Y-98832500D01*
X157666600Y-98832500D02*
X160593500Y-95905600D01*
X160593500Y-95905600D02*
X161354100Y-95905600D01*
X161354100Y-95905600D02*
X161588100Y-96139600D01*
X161588100Y-96139600D02*
X163401400Y-96139600D01*
X163401400Y-96139600D02*
X163635400Y-95905600D01*
X163635400Y-95905600D02*
X165546900Y-95905600D01*
X165546900Y-95905600D02*
X166025000Y-96383700D01*
X134071500Y-67463200D02*
X133730000Y-67804700D01*
X133730000Y-67804700D02*
X112248800Y-67804700D01*
X112248800Y-67804700D02*
X111449900Y-67005800D01*
X147931500Y-67000000D02*
X149500000Y-67000000D01*
X147500000Y-67000000D02*
X147931500Y-67000000D01*
X147931500Y-67000000D02*
X147931500Y-68186000D01*
X154986600Y-81882200D02*
X153472500Y-80368100D01*
X153472500Y-80368100D02*
X148983400Y-80368100D01*
X148983400Y-80368100D02*
X148583200Y-80768300D01*
X148583200Y-80768300D02*
X148019700Y-80768300D01*
X148019700Y-80768300D02*
X147448900Y-80197500D01*
X147448900Y-80197500D02*
X147448900Y-78625000D01*
X147448900Y-78625000D02*
X146521200Y-77697300D01*
X146521200Y-77697300D02*
X145443600Y-77697300D01*
X145443600Y-77697300D02*
X144762200Y-78378700D01*
X189500000Y-67000000D02*
X171978400Y-84521600D01*
X171978400Y-84521600D02*
X155831600Y-84521600D01*
X127384700Y-80377600D02*
X126706200Y-81056100D01*
X126706200Y-81056100D02*
X126706200Y-84739100D01*
X121777800Y-90223900D02*
X126706200Y-85295500D01*
X126706200Y-85295500D02*
X126706200Y-84739100D01*
X126706200Y-84739100D02*
X142407900Y-84739100D01*
X154947700Y-80043800D02*
X155382100Y-79609400D01*
X155382100Y-79609400D02*
X157518400Y-79609400D01*
X157518400Y-79609400D02*
X159395700Y-77732100D01*
X159395700Y-77732100D02*
X167161000Y-77732100D01*
X167161000Y-77732100D02*
X167252600Y-77823700D01*
X167252600Y-77823700D02*
X172676300Y-77823700D01*
X172676300Y-77823700D02*
X183500000Y-67000000D01*
X143915800Y-86275300D02*
X143018400Y-86275300D01*
X143018400Y-86275300D02*
X142716700Y-85973600D01*
X142716700Y-85973600D02*
X139735100Y-85973600D01*
X139735100Y-85973600D02*
X139488200Y-85726700D01*
X139488200Y-85726700D02*
X130606200Y-85726700D01*
X130606200Y-85726700D02*
X129916900Y-86416000D01*
X151413100Y-86565800D02*
X151799000Y-86951700D01*
X151799000Y-86951700D02*
X151799000Y-91653800D01*
X151799000Y-91653800D02*
X151447200Y-92005600D01*
X151447200Y-92005600D02*
X149646100Y-92005600D01*
X149646100Y-92005600D02*
X143915800Y-86275300D01*
X143150700Y-85523200D02*
X139921600Y-85523200D01*
X139921600Y-85523200D02*
X139674800Y-85276400D01*
X139674800Y-85276400D02*
X127645500Y-85276400D01*
X127645500Y-85276400D02*
X127398700Y-85523200D01*
X154251100Y-90989700D02*
X156853000Y-88387800D01*
X156853000Y-88387800D02*
X156853000Y-86269100D01*
X156853000Y-86269100D02*
X156181200Y-85597300D01*
X156181200Y-85597300D02*
X156022700Y-85597300D01*
X156022700Y-85597300D02*
X154960300Y-84534900D01*
X154960300Y-84534900D02*
X154960300Y-84380300D01*
X187500000Y-67000000D02*
X173653200Y-80846800D01*
X173653200Y-80846800D02*
X158848900Y-80846800D01*
X158848900Y-80846800D02*
X158126100Y-81569600D01*
X158126100Y-81569600D02*
X157771000Y-81569600D01*
X157771000Y-81569600D02*
X154960300Y-84380300D01*
X154960300Y-84380300D02*
X152587700Y-84380300D01*
X152587700Y-84380300D02*
X150944900Y-82737500D01*
X150944900Y-82737500D02*
X145787200Y-82737500D01*
X154016400Y-92101600D02*
X153499200Y-92101600D01*
X153499200Y-92101600D02*
X152244300Y-93356500D01*
X152244300Y-93356500D02*
X150117300Y-93356500D01*
X150117300Y-93356500D02*
X149667000Y-93806800D01*
X149667000Y-93806800D02*
X144204900Y-93806800D01*
X144204900Y-93806800D02*
X143710000Y-93311900D01*
X143710000Y-93311900D02*
X131652700Y-93311900D01*
X131652700Y-93311900D02*
X130913900Y-92573100D01*
X130913900Y-92573100D02*
X128270000Y-92573100D01*
X128270000Y-92573100D02*
X127371100Y-91674200D01*
X127371100Y-91674200D02*
X127371100Y-91189500D01*
X154016400Y-92101600D02*
X154023600Y-92101600D01*
X154023600Y-92101600D02*
X156397300Y-89727900D01*
X156397300Y-89727900D02*
X185592800Y-89727900D01*
X186975000Y-98436300D02*
X186975000Y-91110100D01*
X186975000Y-91110100D02*
X185592800Y-89727900D01*
X181500000Y-67000000D02*
X182500400Y-65999600D01*
X182500400Y-65999600D02*
X190389400Y-65999600D01*
X190389400Y-65999600D02*
X190500400Y-66110600D01*
X190500400Y-66110600D02*
X190500400Y-84820300D01*
X190500400Y-84820300D02*
X185592800Y-89727900D01*
X153811000Y-86245500D02*
X153047500Y-87009000D01*
X153047500Y-87009000D02*
X153047500Y-91042700D01*
X153047500Y-91042700D02*
X151634300Y-92455900D01*
X151634300Y-92455900D02*
X149006300Y-92455900D01*
X149006300Y-92455900D02*
X143476400Y-86926000D01*
X143476400Y-86926000D02*
X142839500Y-86926000D01*
X142839500Y-86926000D02*
X142389200Y-86475700D01*
X142389200Y-86475700D02*
X139600300Y-86475700D01*
X139600300Y-86475700D02*
X139301600Y-86177000D01*
X139301600Y-86177000D02*
X131284800Y-86177000D01*
X131284800Y-86177000D02*
X128176800Y-89285000D01*
X128176800Y-89285000D02*
X126001300Y-89285000D01*
X126001300Y-89285000D02*
X122952800Y-92333500D01*
X122952800Y-92333500D02*
X109058700Y-92333500D01*
X109058700Y-92333500D02*
X105486700Y-95905500D01*
X160007900Y-78807800D02*
X159593800Y-78807800D01*
X159593800Y-78807800D02*
X157891600Y-80510000D01*
X157891600Y-80510000D02*
X157254700Y-80510000D01*
X157254700Y-80510000D02*
X154562500Y-83202200D01*
X154562500Y-83202200D02*
X153836700Y-83202200D01*
X153836700Y-83202200D02*
X151665700Y-81031200D01*
X151665700Y-81031200D02*
X149393700Y-81031200D01*
X185500000Y-67000000D02*
X173517200Y-78982800D01*
X173517200Y-78982800D02*
X160182900Y-78982800D01*
X160182900Y-78982800D02*
X160007900Y-78807800D01*
X154115300Y-79991600D02*
X154947800Y-79159100D01*
X154947800Y-79159100D02*
X157331800Y-79159100D01*
X157331800Y-79159100D02*
X159209100Y-77281800D01*
X159209100Y-77281800D02*
X167347600Y-77281800D01*
X167347600Y-77281800D02*
X167439200Y-77373400D01*
X167439200Y-77373400D02*
X170365700Y-77373400D01*
X170365700Y-77373400D02*
X179500000Y-68239100D01*
X179500000Y-68239100D02*
X179500000Y-68000300D01*
X145566800Y-96343700D02*
X146747900Y-97524800D01*
X146747900Y-97524800D02*
X153930200Y-97524800D01*
X153930200Y-97524800D02*
X154148500Y-97306500D01*
X154148500Y-97306500D02*
X157281900Y-97306500D01*
X157281900Y-97306500D02*
X160149800Y-94438600D01*
X160149800Y-94438600D02*
X163518300Y-94438600D01*
X163518300Y-94438600D02*
X164130300Y-95050600D01*
X154115300Y-79991600D02*
X154115300Y-80143000D01*
X154115300Y-80143000D02*
X154641400Y-80669100D01*
X154641400Y-80669100D02*
X156458700Y-80669100D01*
X156458700Y-80669100D02*
X157068100Y-80059700D01*
X157068100Y-80059700D02*
X157705000Y-80059700D01*
X157705000Y-80059700D02*
X159582300Y-78182400D01*
X159582300Y-78182400D02*
X162824900Y-78182400D01*
X162824900Y-78182400D02*
X163000000Y-78357500D01*
X154115300Y-79991600D02*
X154014200Y-79890500D01*
X154014200Y-79890500D02*
X148531200Y-79890500D01*
X148531200Y-79890500D02*
X148278700Y-80143000D01*
X179500000Y-67000000D02*
X179500000Y-68000300D01*
X163500000Y-67000000D02*
X155484100Y-75015900D01*
X155484100Y-75015900D02*
X152645700Y-75015900D01*
X152645700Y-75015900D02*
X152215800Y-75445800D01*
X152215800Y-75445800D02*
X147679500Y-75445800D01*
X147679500Y-75445800D02*
X147483200Y-75249500D01*
X147483200Y-75249500D02*
X140172700Y-75249500D01*
X140172700Y-75249500D02*
X139744600Y-74821400D01*
X106566500Y-69058300D02*
X103400500Y-69058300D01*
X103400500Y-69058300D02*
X102952100Y-69506700D01*
X102952100Y-69506700D02*
X102952100Y-70041700D01*
X102952100Y-70041700D02*
X103601300Y-70690900D01*
X103601300Y-70690900D02*
X122176700Y-70690900D01*
X122176700Y-70690900D02*
X122297100Y-70570500D01*
X122297100Y-70570500D02*
X132158000Y-70570500D01*
X132158000Y-70570500D02*
X132627900Y-71040400D01*
X132627900Y-71040400D02*
X132627900Y-78764600D01*
X139744600Y-74821400D02*
X133837800Y-68914600D01*
X133837800Y-68914600D02*
X109695500Y-68914600D01*
X109695500Y-68914600D02*
X109310400Y-69299700D01*
X109310400Y-69299700D02*
X106807900Y-69299700D01*
X106807900Y-69299700D02*
X106566500Y-69058300D01*
X132627900Y-78764600D02*
X137383500Y-78764600D01*
X137383500Y-78764600D02*
X149499300Y-90880400D01*
X149499300Y-90880400D02*
X149499300Y-90965900D01*
X132627900Y-78764600D02*
X127756700Y-83635800D01*
X127756700Y-83635800D02*
X127395600Y-83635800D01*
X106566500Y-69058300D02*
X106566500Y-69026500D01*
X149769500Y-72406200D02*
X150711200Y-73347900D01*
X150711200Y-73347900D02*
X156152400Y-73347900D01*
X156152400Y-73347900D02*
X161500000Y-68000300D01*
X161500000Y-67000000D02*
X161500000Y-68000300D01*
X159500000Y-67000000D02*
X153777400Y-72722600D01*
X153777400Y-72722600D02*
X153051700Y-72722600D01*
X157500000Y-67000000D02*
X151788100Y-72711900D01*
X151788100Y-72711900D02*
X151695700Y-72711900D01*
X152606800Y-74390500D02*
X150849700Y-74390500D01*
X150849700Y-74390500D02*
X149118600Y-72659400D01*
X149118600Y-72659400D02*
X149118600Y-72121600D01*
X149118600Y-72121600D02*
X149484900Y-71755300D01*
X149484900Y-71755300D02*
X150744700Y-71755300D01*
X150744700Y-71755300D02*
X155500000Y-67000000D01*
X146232800Y-94432200D02*
X149678500Y-94432200D01*
X149678500Y-94432200D02*
X150303900Y-93806800D01*
X150303900Y-93806800D02*
X152646400Y-93806800D01*
X152646400Y-93806800D02*
X153615100Y-92838100D01*
X153615100Y-92838100D02*
X154481800Y-92838100D01*
X154481800Y-92838100D02*
X154878800Y-92441100D01*
X165618700Y-81779200D02*
X164270600Y-83127300D01*
X164270600Y-83127300D02*
X157134100Y-83127300D01*
X157134100Y-83127300D02*
X157134100Y-83127400D01*
X157134100Y-83127400D02*
X157004600Y-83256900D01*
X153500000Y-68000300D02*
X152594700Y-68000300D01*
X152594700Y-68000300D02*
X148578500Y-72016500D01*
X148578500Y-72016500D02*
X148578500Y-74793000D01*
X153500000Y-67000000D02*
X153500000Y-68000300D01*
X168536700Y-68963600D02*
X168536600Y-68963600D01*
X168536600Y-68963600D02*
X167659600Y-68963600D01*
X167659600Y-68963600D02*
X161592900Y-75030300D01*
X161592900Y-75030300D02*
X158276100Y-75030300D01*
X158276100Y-75030300D02*
X157389900Y-75916500D01*
X157389900Y-75916500D02*
X153018900Y-75916500D01*
X153018900Y-75916500D02*
X152569300Y-76366100D01*
X152569300Y-76366100D02*
X147326000Y-76366100D01*
X147326000Y-76366100D02*
X147185300Y-76225400D01*
X147185300Y-76225400D02*
X144248300Y-76225400D01*
X144248300Y-76225400D02*
X143938800Y-76534900D01*
X143938800Y-76534900D02*
X141612700Y-76534900D01*
X168536700Y-68963600D02*
X169076200Y-69503200D01*
X169500000Y-68000300D02*
X168536700Y-68963600D01*
X169500000Y-67000000D02*
X169500000Y-68000300D01*
X154368100Y-105098100D02*
X161835700Y-105098100D01*
X161835700Y-105098100D02*
X170213300Y-96720500D01*
X167418400Y-90978000D02*
X160757000Y-90978000D01*
X160757000Y-90978000D02*
X156683900Y-95051100D01*
X156683900Y-95051100D02*
X150834800Y-95051100D01*
X139111900Y-68648900D02*
X138872300Y-68409300D01*
X138872300Y-68409300D02*
X108568000Y-68409300D01*
X108568000Y-68409300D02*
X108328400Y-68648900D01*
X166999800Y-67000000D02*
X166999800Y-68713100D01*
X166999800Y-68713100D02*
X165804700Y-69908200D01*
X139111900Y-68648900D02*
X141761200Y-65999600D01*
X141761200Y-65999600D02*
X166374500Y-65999600D01*
X166374500Y-65999600D02*
X166999800Y-66624900D01*
X166999800Y-66624900D02*
X166999800Y-67000000D01*
X167500000Y-67000000D02*
X166999800Y-67000000D01*
X139111900Y-68648900D02*
X139111900Y-73197600D01*
X165500000Y-68000300D02*
X164669200Y-68000300D01*
X164669200Y-68000300D02*
X157203300Y-75466200D01*
X157203300Y-75466200D02*
X152832300Y-75466200D01*
X152832300Y-75466200D02*
X152388900Y-75909600D01*
X152388900Y-75909600D02*
X147506400Y-75909600D01*
X147506400Y-75909600D02*
X147324800Y-75728000D01*
X147324800Y-75728000D02*
X138674100Y-75728000D01*
X138674100Y-75728000D02*
X138674100Y-75667500D01*
X138674100Y-75667500D02*
X132374900Y-69368300D01*
X132374900Y-69368300D02*
X111116300Y-69368300D01*
X111116300Y-69368300D02*
X110679700Y-69804900D01*
X110679700Y-69804900D02*
X103616200Y-69804900D01*
X138512000Y-76233900D02*
X138512000Y-78557300D01*
X138512000Y-78557300D02*
X150124700Y-90170000D01*
X150124700Y-90170000D02*
X150124700Y-90937900D01*
X150124700Y-90937900D02*
X150555600Y-91368800D01*
X150555600Y-91368800D02*
X151171100Y-91368800D01*
X138674100Y-75728000D02*
X138674100Y-76071800D01*
X138674100Y-76071800D02*
X138512000Y-76233900D01*
X138512000Y-76233900D02*
X138349800Y-76233900D01*
X165500000Y-67000000D02*
X165500000Y-68000300D01*
X143992900Y-92231500D02*
X143315600Y-92231500D01*
X143315600Y-92231500D02*
X143145300Y-92401800D01*
X148327100Y-92725300D02*
X147833300Y-92231500D01*
X147833300Y-92231500D02*
X143992900Y-92231500D01*
X143992900Y-92231500D02*
X143992900Y-88522800D01*
X143992900Y-88522800D02*
X143620300Y-88150200D01*
X143620300Y-88150200D02*
X141131300Y-88150200D01*
X141131300Y-88150200D02*
X138854100Y-90427400D01*
X171526400Y-96787700D02*
X160890900Y-107423200D01*
X160890900Y-107423200D02*
X149545800Y-107423200D01*
X149545800Y-107423200D02*
X149095500Y-107873500D01*
X149095500Y-107873500D02*
X145253400Y-107873500D01*
X145253400Y-107873500D02*
X143065600Y-105685700D01*
X177500000Y-67000000D02*
X177500000Y-69012400D01*
X177500000Y-69012400D02*
X171526400Y-74986000D01*
X171500000Y-68000300D02*
X164019700Y-75480600D01*
X164019700Y-75480600D02*
X158462700Y-75480600D01*
X158462700Y-75480600D02*
X157126200Y-76817100D01*
X157126200Y-76817100D02*
X147140100Y-76817100D01*
X147140100Y-76817100D02*
X147032000Y-76709000D01*
X147032000Y-76709000D02*
X144401700Y-76709000D01*
X144401700Y-76709000D02*
X144125400Y-76985300D01*
X144125400Y-76985300D02*
X142916300Y-76985300D01*
X142916300Y-76985300D02*
X140696900Y-79204700D01*
X140696900Y-79204700D02*
X140696900Y-79910700D01*
X140696900Y-79910700D02*
X145224700Y-84438500D01*
X145224700Y-84438500D02*
X150357100Y-84438500D01*
X171500000Y-67000000D02*
X171500000Y-68000300D01*
X150357100Y-84438500D02*
X150750000Y-84831400D01*
X150750000Y-84831400D02*
X150750000Y-90657900D01*
X168892700Y-75910600D02*
X168892700Y-72607600D01*
X168892700Y-72607600D02*
X173500000Y-68000300D01*
X153903500Y-78513700D02*
X154158700Y-78258500D01*
X154158700Y-78258500D02*
X156958600Y-78258500D01*
X156958600Y-78258500D02*
X158835900Y-76381200D01*
X158835900Y-76381200D02*
X167720800Y-76381200D01*
X167720800Y-76381200D02*
X167812400Y-76472800D01*
X167812400Y-76472800D02*
X168330500Y-76472800D01*
X168330500Y-76472800D02*
X168892700Y-75910600D01*
X169943000Y-76202100D02*
X169651500Y-75910600D01*
X169651500Y-75910600D02*
X168892700Y-75910600D01*
X170869400Y-93947800D02*
X167311400Y-93947800D01*
X167311400Y-93947800D02*
X166895500Y-93531900D01*
X166895500Y-93531900D02*
X159782700Y-93531900D01*
X159782700Y-93531900D02*
X156908700Y-96405900D01*
X156908700Y-96405900D02*
X148228600Y-96405900D01*
X148228600Y-96405900D02*
X148193700Y-96440800D01*
X173500000Y-67000000D02*
X173500000Y-68000300D01*
X150370600Y-79191100D02*
X154185900Y-79191100D01*
X154185900Y-79191100D02*
X154668200Y-78708800D01*
X154668200Y-78708800D02*
X157145200Y-78708800D01*
X157145200Y-78708800D02*
X159022500Y-76831500D01*
X159022500Y-76831500D02*
X167534200Y-76831500D01*
X167534200Y-76831500D02*
X167625800Y-76923100D01*
X167625800Y-76923100D02*
X170146900Y-76923100D01*
X170146900Y-76923100D02*
X170626100Y-76443900D01*
X170626100Y-76443900D02*
X170626100Y-74421700D01*
X147177200Y-96025800D02*
X147387500Y-95815500D01*
X147387500Y-95815500D02*
X156862200Y-95815500D01*
X156862200Y-95815500D02*
X159710400Y-92967300D01*
X159710400Y-92967300D02*
X169550900Y-92967300D01*
X175500000Y-67000000D02*
X175500000Y-69547800D01*
X175500000Y-69547800D02*
X170626100Y-74421700D01*
X170626100Y-74421700D02*
X169550900Y-74421700D01*
X155661500Y-102666100D02*
X151354700Y-106972900D01*
X151354700Y-106972900D02*
X149359100Y-106972900D01*
X149359100Y-106972900D02*
X148930200Y-107401800D01*
X148930200Y-107401800D02*
X145434800Y-107401800D01*
X145434800Y-107401800D02*
X143690900Y-105657900D01*
X143690900Y-105657900D02*
X143690900Y-105426600D01*
X143690900Y-105426600D02*
X133135200Y-94870900D01*
X133135200Y-94870900D02*
X129931000Y-94870900D01*
X129931000Y-94870900D02*
X128242800Y-93182700D01*
X128242800Y-93182700D02*
X126511400Y-93182700D01*
X126511400Y-93182700D02*
X125559500Y-92230800D01*
X159318300Y-91226400D02*
X156122800Y-94421900D01*
X156122800Y-94421900D02*
X153735200Y-94421900D01*
X147116800Y-80502200D02*
X146452900Y-79838400D01*
X146452900Y-79838400D02*
X146452900Y-78513500D01*
X146452900Y-78513500D02*
X146329200Y-78389800D01*
X148313000Y-106143600D02*
X146340600Y-106143600D01*
X146340600Y-106143600D02*
X145785000Y-105588000D01*
X147116800Y-80502200D02*
X147904600Y-81290100D01*
X147904600Y-81290100D02*
X148768400Y-81290100D01*
X148768400Y-81290100D02*
X148768400Y-81290200D01*
X148768400Y-81290200D02*
X149288900Y-81810700D01*
X149288900Y-81810700D02*
X150655000Y-81810700D01*
X150655000Y-81810700D02*
X152671900Y-83827600D01*
X152671900Y-83827600D02*
X154574100Y-83827600D01*
X154574100Y-83827600D02*
X157441400Y-80960300D01*
X157441400Y-80960300D02*
X158078200Y-80960300D01*
X158078200Y-80960300D02*
X158817100Y-80221400D01*
X158817100Y-80221400D02*
X163068700Y-80221400D01*
X156214800Y-86587000D02*
X155921400Y-86587000D01*
X155921400Y-86587000D02*
X154334900Y-85000500D01*
X154334900Y-85000500D02*
X152571000Y-85000500D01*
X152571000Y-85000500D02*
X150933300Y-83362800D01*
X150933300Y-83362800D02*
X145467000Y-83362800D01*
X145467000Y-83362800D02*
X145143500Y-83039300D01*
X145143500Y-83039300D02*
X145143500Y-82475500D01*
X145143500Y-82475500D02*
X147116800Y-80502200D01*
X156214800Y-86587000D02*
X156214800Y-88141800D01*
X156214800Y-88141800D02*
X156214700Y-88141800D01*
X156214700Y-88141800D02*
X153497800Y-90858700D01*
X153497800Y-90858700D02*
X153497800Y-91306900D01*
X153497800Y-91306900D02*
X151898500Y-92906200D01*
X151898500Y-92906200D02*
X149705500Y-92906200D01*
X149705500Y-92906200D02*
X149255200Y-93356500D01*
X149255200Y-93356500D02*
X144638900Y-93356500D01*
X144638900Y-93356500D02*
X144213200Y-92930800D01*
X151500000Y-68000300D02*
X148023700Y-71476600D01*
X148023700Y-71476600D02*
X148023700Y-72907000D01*
X148023700Y-72907000D02*
X146372000Y-74558700D01*
X146372000Y-74558700D02*
X146271100Y-74558700D01*
X151500000Y-67000000D02*
X151500000Y-68000300D01*
X141329900Y-79464600D02*
X141329900Y-79862700D01*
X141329900Y-79862700D02*
X145280300Y-83813100D01*
X145280300Y-83813100D02*
X150746700Y-83813100D01*
X150746700Y-83813100D02*
X152543300Y-85609700D01*
X152543300Y-85609700D02*
X154059600Y-85609700D01*
X154059600Y-85609700D02*
X155496700Y-87046800D01*
X129267000Y-95321300D02*
X132656900Y-95321300D01*
X132656900Y-95321300D02*
X137550000Y-100214400D01*
X109250000Y-111158200D02*
X109353700Y-111261900D01*
X109353700Y-111261900D02*
X155750000Y-111261900D01*
X139650000Y-106745500D02*
X115498800Y-106745500D01*
X115498800Y-106745500D02*
X106750000Y-97996700D01*
X110510000Y-96220800D02*
X119056600Y-104767400D01*
X119056600Y-104767400D02*
X138950000Y-104767400D01*
X109250000Y-113874000D02*
X153069400Y-113874000D01*
X153069400Y-113874000D02*
X155050000Y-111893400D01*
X162033700Y-95064000D02*
X161946100Y-94976400D01*
X161946100Y-94976400D02*
X160248900Y-94976400D01*
X160248900Y-94976400D02*
X157468500Y-97756800D01*
X157468500Y-97756800D02*
X154335100Y-97756800D01*
X154335100Y-97756800D02*
X154116800Y-97975100D01*
X154116800Y-97975100D02*
X151221300Y-97975100D01*
X151221300Y-97975100D02*
X149835000Y-99361400D01*
X144556300Y-105536500D02*
X151667400Y-98425400D01*
X151667400Y-98425400D02*
X154303400Y-98425400D01*
X154303400Y-98425400D02*
X154521700Y-98207100D01*
X154521700Y-98207100D02*
X157655100Y-98207100D01*
X157655100Y-98207100D02*
X160435500Y-95426700D01*
X160435500Y-95426700D02*
X161512100Y-95426700D01*
X161512100Y-95426700D02*
X161774700Y-95689300D01*
X161774700Y-95689300D02*
X162420600Y-95689300D01*
X162420600Y-95689300D02*
X162834100Y-95275800D01*
X155561500Y-112527800D02*
X158994600Y-109094700D01*
X158994600Y-109094700D02*
X160022600Y-109094700D01*
X160844200Y-96544500D02*
X150866100Y-106522600D01*
X150866100Y-106522600D02*
X149172500Y-106522600D01*
X149172500Y-106522600D02*
X148903200Y-106791900D01*
X148903200Y-106791900D02*
X145972100Y-106791900D01*
X145972100Y-106791900D02*
X145918200Y-106738000D01*
D13*
G36*
X190373000Y-114290000D02*
G01*
X153728201Y-114290000D01*
X154864806Y-113153396D01*
X154965472Y-113254062D01*
X155118611Y-113356386D01*
X155288771Y-113426868D01*
X155469411Y-113462800D01*
X155653589Y-113462800D01*
X155834229Y-113426868D01*
X156004389Y-113356386D01*
X156157528Y-113254062D01*
X156287762Y-113123828D01*
X156390086Y-112970689D01*
X156460568Y-112800529D01*
X156484653Y-112679448D01*
X158034190Y-111129911D01*
X176033000Y-111129911D01*
X176033000Y-111314089D01*
X176068932Y-111494729D01*
X176139414Y-111664889D01*
X176241738Y-111818028D01*
X176371972Y-111948262D01*
X176525111Y-112050586D01*
X176695271Y-112121068D01*
X176875911Y-112157000D01*
X177060089Y-112157000D01*
X177240729Y-112121068D01*
X177410889Y-112050586D01*
X177564028Y-111948262D01*
X177694262Y-111818028D01*
X177796586Y-111664889D01*
X177867068Y-111494729D01*
X177903000Y-111314089D01*
X177903000Y-111129911D01*
X180097000Y-111129911D01*
X180097000Y-111314089D01*
X180132932Y-111494729D01*
X180203414Y-111664889D01*
X180305738Y-111818028D01*
X180435972Y-111948262D01*
X180589111Y-112050586D01*
X180759271Y-112121068D01*
X180939911Y-112157000D01*
X181124089Y-112157000D01*
X181304729Y-112121068D01*
X181474889Y-112050586D01*
X181628028Y-111948262D01*
X181758262Y-111818028D01*
X181860586Y-111664889D01*
X181931068Y-111494729D01*
X181967000Y-111314089D01*
X181967000Y-111129911D01*
X181931068Y-110949271D01*
X181860586Y-110779111D01*
X181758262Y-110625972D01*
X181628028Y-110495738D01*
X181474889Y-110393414D01*
X181304729Y-110322932D01*
X181124089Y-110287000D01*
X180939911Y-110287000D01*
X180759271Y-110322932D01*
X180589111Y-110393414D01*
X180435972Y-110495738D01*
X180305738Y-110625972D01*
X180203414Y-110779111D01*
X180132932Y-110949271D01*
X180097000Y-111129911D01*
X177903000Y-111129911D01*
X177867068Y-110949271D01*
X177796586Y-110779111D01*
X177694262Y-110625972D01*
X177564028Y-110495738D01*
X177410889Y-110393414D01*
X177240729Y-110322932D01*
X177060089Y-110287000D01*
X176875911Y-110287000D01*
X176695271Y-110322932D01*
X176525111Y-110393414D01*
X176371972Y-110495738D01*
X176241738Y-110625972D01*
X176139414Y-110779111D01*
X176068932Y-110949271D01*
X176033000Y-111129911D01*
X158034190Y-111129911D01*
X159309402Y-109854700D01*
X159477065Y-109854700D01*
X159579711Y-109923286D01*
X159749871Y-109993768D01*
X159930511Y-110029700D01*
X160114689Y-110029700D01*
X160295329Y-109993768D01*
X160465489Y-109923286D01*
X160618628Y-109820962D01*
X160748862Y-109690728D01*
X160851186Y-109537589D01*
X160921668Y-109367429D01*
X160949144Y-109229300D01*
X187637310Y-109229300D01*
X187753972Y-109345962D01*
X187907111Y-109448286D01*
X188077271Y-109518768D01*
X188257911Y-109554700D01*
X188442089Y-109554700D01*
X188622729Y-109518768D01*
X188792889Y-109448286D01*
X188946028Y-109345962D01*
X189076262Y-109215728D01*
X189178586Y-109062589D01*
X189249068Y-108892429D01*
X189285000Y-108711789D01*
X189285000Y-108527611D01*
X189249068Y-108346971D01*
X189178586Y-108176811D01*
X189076262Y-108023672D01*
X188946028Y-107893438D01*
X188792889Y-107791114D01*
X188622729Y-107720632D01*
X188442089Y-107684700D01*
X188257911Y-107684700D01*
X188134240Y-107709300D01*
X179933267Y-107709300D01*
X179899068Y-107537371D01*
X179828586Y-107367211D01*
X179726262Y-107214072D01*
X179596028Y-107083838D01*
X179442889Y-106981514D01*
X179272729Y-106911032D01*
X179092089Y-106875100D01*
X178907911Y-106875100D01*
X178727271Y-106911032D01*
X178557111Y-106981514D01*
X178403972Y-107083838D01*
X178273738Y-107214072D01*
X178243718Y-107259000D01*
X162129901Y-107259000D01*
X171678049Y-97710853D01*
X171799129Y-97686768D01*
X171969289Y-97616286D01*
X172122428Y-97513962D01*
X172252662Y-97383728D01*
X172354986Y-97230589D01*
X172425468Y-97060429D01*
X172461400Y-96879789D01*
X172461400Y-96857289D01*
X172520811Y-96896986D01*
X172690971Y-96967468D01*
X172871611Y-97003400D01*
X173055789Y-97003400D01*
X173236429Y-96967468D01*
X173406589Y-96896986D01*
X173539426Y-96808227D01*
X176369347Y-99638149D01*
X176393432Y-99759229D01*
X176463914Y-99929389D01*
X176566238Y-100082528D01*
X176696472Y-100212762D01*
X176849611Y-100315086D01*
X177019771Y-100385568D01*
X177200411Y-100421500D01*
X177384589Y-100421500D01*
X177565229Y-100385568D01*
X177735389Y-100315086D01*
X177888528Y-100212762D01*
X178018762Y-100082528D01*
X178121086Y-99929389D01*
X178191568Y-99759229D01*
X178227500Y-99578589D01*
X178227500Y-99394411D01*
X178191568Y-99213771D01*
X178121086Y-99043611D01*
X178018762Y-98890472D01*
X177888528Y-98760238D01*
X177735389Y-98657914D01*
X177565229Y-98587432D01*
X177444149Y-98563347D01*
X169368701Y-90487900D01*
X185277999Y-90487900D01*
X186215001Y-91424903D01*
X186215000Y-97890764D01*
X186146414Y-97993411D01*
X186075932Y-98163571D01*
X186040000Y-98344211D01*
X186040000Y-98528389D01*
X186075932Y-98709029D01*
X186146414Y-98879189D01*
X186248738Y-99032328D01*
X186378972Y-99162562D01*
X186532111Y-99264886D01*
X186702271Y-99335368D01*
X186882911Y-99371300D01*
X187067089Y-99371300D01*
X187247729Y-99335368D01*
X187417889Y-99264886D01*
X187571028Y-99162562D01*
X187701262Y-99032328D01*
X187803586Y-98879189D01*
X187874068Y-98709029D01*
X187910000Y-98528389D01*
X187910000Y-98344211D01*
X187874068Y-98163571D01*
X187803586Y-97993411D01*
X187735000Y-97890765D01*
X187735000Y-91147422D01*
X187738676Y-91110100D01*
X187735000Y-91072777D01*
X187735000Y-91072767D01*
X187724003Y-90961114D01*
X187680546Y-90817853D01*
X187662190Y-90783511D01*
X187609974Y-90685823D01*
X187538799Y-90599097D01*
X187515001Y-90570099D01*
X187486003Y-90546301D01*
X186667601Y-89727900D01*
X190373000Y-86022502D01*
X190373000Y-114290000D01*
X190373000Y-114290000D01*
G37*
X190373000Y-114290000D02*
X153728201Y-114290000D01*
X154864806Y-113153396D01*
X154965472Y-113254062D01*
X155118611Y-113356386D01*
X155288771Y-113426868D01*
X155469411Y-113462800D01*
X155653589Y-113462800D01*
X155834229Y-113426868D01*
X156004389Y-113356386D01*
X156157528Y-113254062D01*
X156287762Y-113123828D01*
X156390086Y-112970689D01*
X156460568Y-112800529D01*
X156484653Y-112679448D01*
X158034190Y-111129911D01*
X176033000Y-111129911D01*
X176033000Y-111314089D01*
X176068932Y-111494729D01*
X176139414Y-111664889D01*
X176241738Y-111818028D01*
X176371972Y-111948262D01*
X176525111Y-112050586D01*
X176695271Y-112121068D01*
X176875911Y-112157000D01*
X177060089Y-112157000D01*
X177240729Y-112121068D01*
X177410889Y-112050586D01*
X177564028Y-111948262D01*
X177694262Y-111818028D01*
X177796586Y-111664889D01*
X177867068Y-111494729D01*
X177903000Y-111314089D01*
X177903000Y-111129911D01*
X180097000Y-111129911D01*
X180097000Y-111314089D01*
X180132932Y-111494729D01*
X180203414Y-111664889D01*
X180305738Y-111818028D01*
X180435972Y-111948262D01*
X180589111Y-112050586D01*
X180759271Y-112121068D01*
X180939911Y-112157000D01*
X181124089Y-112157000D01*
X181304729Y-112121068D01*
X181474889Y-112050586D01*
X181628028Y-111948262D01*
X181758262Y-111818028D01*
X181860586Y-111664889D01*
X181931068Y-111494729D01*
X181967000Y-111314089D01*
X181967000Y-111129911D01*
X181931068Y-110949271D01*
X181860586Y-110779111D01*
X181758262Y-110625972D01*
X181628028Y-110495738D01*
X181474889Y-110393414D01*
X181304729Y-110322932D01*
X181124089Y-110287000D01*
X180939911Y-110287000D01*
X180759271Y-110322932D01*
X180589111Y-110393414D01*
X180435972Y-110495738D01*
X180305738Y-110625972D01*
X180203414Y-110779111D01*
X180132932Y-110949271D01*
X180097000Y-111129911D01*
X177903000Y-111129911D01*
X177867068Y-110949271D01*
X177796586Y-110779111D01*
X177694262Y-110625972D01*
X177564028Y-110495738D01*
X177410889Y-110393414D01*
X177240729Y-110322932D01*
X177060089Y-110287000D01*
X176875911Y-110287000D01*
X176695271Y-110322932D01*
X176525111Y-110393414D01*
X176371972Y-110495738D01*
X176241738Y-110625972D01*
X176139414Y-110779111D01*
X176068932Y-110949271D01*
X176033000Y-111129911D01*
X158034190Y-111129911D01*
X159309402Y-109854700D01*
X159477065Y-109854700D01*
X159579711Y-109923286D01*
X159749871Y-109993768D01*
X159930511Y-110029700D01*
X160114689Y-110029700D01*
X160295329Y-109993768D01*
X160465489Y-109923286D01*
X160618628Y-109820962D01*
X160748862Y-109690728D01*
X160851186Y-109537589D01*
X160921668Y-109367429D01*
X160949144Y-109229300D01*
X187637310Y-109229300D01*
X187753972Y-109345962D01*
X187907111Y-109448286D01*
X188077271Y-109518768D01*
X188257911Y-109554700D01*
X188442089Y-109554700D01*
X188622729Y-109518768D01*
X188792889Y-109448286D01*
X188946028Y-109345962D01*
X189076262Y-109215728D01*
X189178586Y-109062589D01*
X189249068Y-108892429D01*
X189285000Y-108711789D01*
X189285000Y-108527611D01*
X189249068Y-108346971D01*
X189178586Y-108176811D01*
X189076262Y-108023672D01*
X188946028Y-107893438D01*
X188792889Y-107791114D01*
X188622729Y-107720632D01*
X188442089Y-107684700D01*
X188257911Y-107684700D01*
X188134240Y-107709300D01*
X179933267Y-107709300D01*
X179899068Y-107537371D01*
X179828586Y-107367211D01*
X179726262Y-107214072D01*
X179596028Y-107083838D01*
X179442889Y-106981514D01*
X179272729Y-106911032D01*
X179092089Y-106875100D01*
X178907911Y-106875100D01*
X178727271Y-106911032D01*
X178557111Y-106981514D01*
X178403972Y-107083838D01*
X178273738Y-107214072D01*
X178243718Y-107259000D01*
X162129901Y-107259000D01*
X171678049Y-97710853D01*
X171799129Y-97686768D01*
X171969289Y-97616286D01*
X172122428Y-97513962D01*
X172252662Y-97383728D01*
X172354986Y-97230589D01*
X172425468Y-97060429D01*
X172461400Y-96879789D01*
X172461400Y-96857289D01*
X172520811Y-96896986D01*
X172690971Y-96967468D01*
X172871611Y-97003400D01*
X173055789Y-97003400D01*
X173236429Y-96967468D01*
X173406589Y-96896986D01*
X173539426Y-96808227D01*
X176369347Y-99638149D01*
X176393432Y-99759229D01*
X176463914Y-99929389D01*
X176566238Y-100082528D01*
X176696472Y-100212762D01*
X176849611Y-100315086D01*
X177019771Y-100385568D01*
X177200411Y-100421500D01*
X177384589Y-100421500D01*
X177565229Y-100385568D01*
X177735389Y-100315086D01*
X177888528Y-100212762D01*
X178018762Y-100082528D01*
X178121086Y-99929389D01*
X178191568Y-99759229D01*
X178227500Y-99578589D01*
X178227500Y-99394411D01*
X178191568Y-99213771D01*
X178121086Y-99043611D01*
X178018762Y-98890472D01*
X177888528Y-98760238D01*
X177735389Y-98657914D01*
X177565229Y-98587432D01*
X177444149Y-98563347D01*
X169368701Y-90487900D01*
X185277999Y-90487900D01*
X186215001Y-91424903D01*
X186215000Y-97890764D01*
X186146414Y-97993411D01*
X186075932Y-98163571D01*
X186040000Y-98344211D01*
X186040000Y-98528389D01*
X186075932Y-98709029D01*
X186146414Y-98879189D01*
X186248738Y-99032328D01*
X186378972Y-99162562D01*
X186532111Y-99264886D01*
X186702271Y-99335368D01*
X186882911Y-99371300D01*
X187067089Y-99371300D01*
X187247729Y-99335368D01*
X187417889Y-99264886D01*
X187571028Y-99162562D01*
X187701262Y-99032328D01*
X187803586Y-98879189D01*
X187874068Y-98709029D01*
X187910000Y-98528389D01*
X187910000Y-98344211D01*
X187874068Y-98163571D01*
X187803586Y-97993411D01*
X187735000Y-97890765D01*
X187735000Y-91147422D01*
X187738676Y-91110100D01*
X187735000Y-91072777D01*
X187735000Y-91072767D01*
X187724003Y-90961114D01*
X187680546Y-90817853D01*
X187662190Y-90783511D01*
X187609974Y-90685823D01*
X187538799Y-90599097D01*
X187515001Y-90570099D01*
X187486003Y-90546301D01*
X186667601Y-89727900D01*
X190373000Y-86022502D01*
X190373000Y-114290000D01*
G36*
X103037505Y-71201908D02*
G01*
X103061299Y-71230901D01*
X103090292Y-71254695D01*
X103090296Y-71254699D01*
X103105891Y-71267497D01*
X103177024Y-71325874D01*
X103309053Y-71396446D01*
X103452314Y-71439903D01*
X103563967Y-71450900D01*
X103563976Y-71450900D01*
X103601299Y-71454576D01*
X103638622Y-71450900D01*
X109074998Y-71450900D01*
X105596052Y-74929847D01*
X105474971Y-74953932D01*
X105304811Y-75024414D01*
X105151672Y-75126738D01*
X105021438Y-75256972D01*
X104919114Y-75410111D01*
X104848632Y-75580271D01*
X104812700Y-75760911D01*
X104812700Y-75945089D01*
X104848632Y-76125729D01*
X104919114Y-76295889D01*
X105021438Y-76449028D01*
X105151672Y-76579262D01*
X105304811Y-76681586D01*
X105474971Y-76752068D01*
X105655611Y-76788000D01*
X105839789Y-76788000D01*
X106020429Y-76752068D01*
X106190589Y-76681586D01*
X106343728Y-76579262D01*
X106473962Y-76449028D01*
X106576286Y-76295889D01*
X106646768Y-76125729D01*
X106670853Y-76004648D01*
X110699202Y-71976300D01*
X131270965Y-71976300D01*
X131373611Y-72044886D01*
X131543771Y-72115368D01*
X131724411Y-72151300D01*
X131867900Y-72151300D01*
X131867901Y-78449797D01*
X127595461Y-82722238D01*
X127487689Y-82700800D01*
X127466200Y-82700800D01*
X127466200Y-81370901D01*
X127536349Y-81300753D01*
X127657429Y-81276668D01*
X127827589Y-81206186D01*
X127980728Y-81103862D01*
X128110962Y-80973628D01*
X128213286Y-80820489D01*
X128283768Y-80650329D01*
X128319700Y-80469689D01*
X128319700Y-80285511D01*
X128283768Y-80104871D01*
X128213286Y-79934711D01*
X128110962Y-79781572D01*
X127980728Y-79651338D01*
X127827589Y-79549014D01*
X127657429Y-79478532D01*
X127476789Y-79442600D01*
X127292611Y-79442600D01*
X127111971Y-79478532D01*
X126941811Y-79549014D01*
X126788672Y-79651338D01*
X126658438Y-79781572D01*
X126556114Y-79934711D01*
X126485632Y-80104871D01*
X126461547Y-80225951D01*
X126195202Y-80492297D01*
X126166199Y-80516099D01*
X126121387Y-80570703D01*
X126071226Y-80631824D01*
X126013924Y-80739028D01*
X126000654Y-80763854D01*
X125957197Y-80907115D01*
X125946200Y-81018768D01*
X125946200Y-81018778D01*
X125942524Y-81056100D01*
X125946200Y-81093423D01*
X125946201Y-84701757D01*
X125942523Y-84739100D01*
X125946200Y-84776433D01*
X125946200Y-84980698D01*
X121626152Y-89300747D01*
X121505071Y-89324832D01*
X121334911Y-89395314D01*
X121181772Y-89497638D01*
X121051538Y-89627872D01*
X120949214Y-89781011D01*
X120878732Y-89951171D01*
X120842800Y-90131811D01*
X120842800Y-90315989D01*
X120878732Y-90496629D01*
X120949214Y-90666789D01*
X121051538Y-90819928D01*
X121181772Y-90950162D01*
X121334911Y-91052486D01*
X121505071Y-91122968D01*
X121685711Y-91158900D01*
X121869889Y-91158900D01*
X122050529Y-91122968D01*
X122220689Y-91052486D01*
X122373828Y-90950162D01*
X122504062Y-90819928D01*
X122606386Y-90666789D01*
X122676868Y-90496629D01*
X122700953Y-90375548D01*
X126817280Y-86259222D01*
X126955811Y-86351786D01*
X127125971Y-86422268D01*
X127306611Y-86458200D01*
X127490789Y-86458200D01*
X127671429Y-86422268D01*
X127841589Y-86351786D01*
X127994728Y-86249462D01*
X128124962Y-86119228D01*
X128180306Y-86036400D01*
X129062099Y-86036400D01*
X129017832Y-86143271D01*
X128981900Y-86323911D01*
X128981900Y-86508089D01*
X129017832Y-86688729D01*
X129088314Y-86858889D01*
X129190638Y-87012028D01*
X129282804Y-87104194D01*
X127861999Y-88525000D01*
X126038622Y-88525000D01*
X126001299Y-88521324D01*
X125963976Y-88525000D01*
X125963967Y-88525000D01*
X125852314Y-88535997D01*
X125709053Y-88579454D01*
X125577023Y-88650026D01*
X125493383Y-88718668D01*
X125461299Y-88744999D01*
X125437501Y-88773997D01*
X122637999Y-91573500D01*
X109096023Y-91573500D01*
X109058700Y-91569824D01*
X109021377Y-91573500D01*
X109021367Y-91573500D01*
X108909714Y-91584497D01*
X108766453Y-91627954D01*
X108634424Y-91698526D01*
X108518699Y-91793499D01*
X108494901Y-91822497D01*
X105335052Y-94982347D01*
X105213971Y-95006432D01*
X105043811Y-95076914D01*
X104890672Y-95179238D01*
X104760438Y-95309472D01*
X104658114Y-95462611D01*
X104587632Y-95632771D01*
X104551700Y-95813411D01*
X104551700Y-95997589D01*
X104587632Y-96178229D01*
X104658114Y-96348389D01*
X104760438Y-96501528D01*
X104890672Y-96631762D01*
X105043811Y-96734086D01*
X105213971Y-96804568D01*
X105394611Y-96840500D01*
X105578789Y-96840500D01*
X105759429Y-96804568D01*
X105929589Y-96734086D01*
X106082728Y-96631762D01*
X106212962Y-96501528D01*
X106315286Y-96348389D01*
X106385768Y-96178229D01*
X106409853Y-96057148D01*
X109373502Y-93093500D01*
X122915478Y-93093500D01*
X122952800Y-93097176D01*
X122990122Y-93093500D01*
X122990133Y-93093500D01*
X123101786Y-93082503D01*
X123245047Y-93039046D01*
X123377076Y-92968474D01*
X123492801Y-92873501D01*
X123516604Y-92844497D01*
X124142100Y-92219001D01*
X124142100Y-92452778D01*
X124138424Y-92490100D01*
X124142100Y-92527422D01*
X124142100Y-92527432D01*
X124153097Y-92639085D01*
X124191474Y-92765600D01*
X124196554Y-92782346D01*
X124267126Y-92914376D01*
X124298087Y-92952102D01*
X124362099Y-93030101D01*
X124391103Y-93053904D01*
X127843900Y-96506702D01*
X127867699Y-96535701D01*
X127896697Y-96559499D01*
X127983423Y-96630674D01*
X128100937Y-96693487D01*
X128115453Y-96701246D01*
X128258714Y-96744703D01*
X128370367Y-96755700D01*
X128370376Y-96755700D01*
X128407699Y-96759376D01*
X128445022Y-96755700D01*
X130814699Y-96755700D01*
X138066398Y-104007400D01*
X119371402Y-104007400D01*
X111433153Y-96069152D01*
X111409068Y-95948071D01*
X111338586Y-95777911D01*
X111236262Y-95624772D01*
X111106028Y-95494538D01*
X110952889Y-95392214D01*
X110782729Y-95321732D01*
X110602089Y-95285800D01*
X110417911Y-95285800D01*
X110237271Y-95321732D01*
X110067111Y-95392214D01*
X109913972Y-95494538D01*
X109783738Y-95624772D01*
X109681414Y-95777911D01*
X109610932Y-95948071D01*
X109575000Y-96128711D01*
X109575000Y-96312889D01*
X109610932Y-96493529D01*
X109681414Y-96663689D01*
X109783738Y-96816828D01*
X109913972Y-96947062D01*
X110067111Y-97049386D01*
X110237271Y-97119868D01*
X110358352Y-97143953D01*
X118492801Y-105278403D01*
X118516599Y-105307401D01*
X118632324Y-105402374D01*
X118764353Y-105472946D01*
X118907614Y-105516403D01*
X119019267Y-105527400D01*
X119019275Y-105527400D01*
X119056600Y-105531076D01*
X119093925Y-105527400D01*
X138404465Y-105527400D01*
X138507111Y-105595986D01*
X138677271Y-105666468D01*
X138857911Y-105702400D01*
X139042089Y-105702400D01*
X139222729Y-105666468D01*
X139392889Y-105595986D01*
X139546028Y-105493662D01*
X139549344Y-105490346D01*
X139901135Y-105842137D01*
X139742089Y-105810500D01*
X139557911Y-105810500D01*
X139377271Y-105846432D01*
X139207111Y-105916914D01*
X139104465Y-105985500D01*
X115813602Y-105985500D01*
X107673153Y-97845052D01*
X107649068Y-97723971D01*
X107578586Y-97553811D01*
X107476262Y-97400672D01*
X107346028Y-97270438D01*
X107192889Y-97168114D01*
X107022729Y-97097632D01*
X106842089Y-97061700D01*
X106657911Y-97061700D01*
X106477271Y-97097632D01*
X106307111Y-97168114D01*
X106153972Y-97270438D01*
X106023738Y-97400672D01*
X105921414Y-97553811D01*
X105850932Y-97723971D01*
X105815000Y-97904611D01*
X105815000Y-98088789D01*
X105850932Y-98269429D01*
X105921414Y-98439589D01*
X106023738Y-98592728D01*
X106153972Y-98722962D01*
X106307111Y-98825286D01*
X106477271Y-98895768D01*
X106598352Y-98919853D01*
X114935001Y-107256503D01*
X114958799Y-107285501D01*
X114987797Y-107309299D01*
X115074524Y-107380474D01*
X115206553Y-107451046D01*
X115349814Y-107494503D01*
X115498800Y-107509177D01*
X115536133Y-107505500D01*
X139104465Y-107505500D01*
X139207111Y-107574086D01*
X139377271Y-107644568D01*
X139557911Y-107680500D01*
X139742089Y-107680500D01*
X139922729Y-107644568D01*
X140092889Y-107574086D01*
X140246028Y-107471762D01*
X140376262Y-107341528D01*
X140478586Y-107188389D01*
X140549068Y-107018229D01*
X140585000Y-106837589D01*
X140585000Y-106653411D01*
X140553363Y-106494365D01*
X142168898Y-108109900D01*
X136806525Y-108109900D01*
X136728062Y-107992472D01*
X136597828Y-107862238D01*
X136444689Y-107759914D01*
X136274529Y-107689432D01*
X136093889Y-107653500D01*
X135909711Y-107653500D01*
X135729071Y-107689432D01*
X135558911Y-107759914D01*
X135405772Y-107862238D01*
X135275538Y-107992472D01*
X135173214Y-108145611D01*
X135102732Y-108315771D01*
X135066800Y-108496411D01*
X135066800Y-108680589D01*
X135102732Y-108861229D01*
X135173214Y-109031389D01*
X135275538Y-109184528D01*
X135405772Y-109314762D01*
X135558911Y-109417086D01*
X135729071Y-109487568D01*
X135884322Y-109518450D01*
X135990953Y-109575446D01*
X136134214Y-109618903D01*
X136245867Y-109629900D01*
X136245875Y-109629900D01*
X136283200Y-109633576D01*
X136320525Y-109629900D01*
X149560478Y-109629900D01*
X149597800Y-109633576D01*
X149635122Y-109629900D01*
X149635133Y-109629900D01*
X149746786Y-109618903D01*
X149890047Y-109575446D01*
X150022076Y-109504874D01*
X150137801Y-109409901D01*
X150161604Y-109380897D01*
X150313201Y-109229300D01*
X157785198Y-109229300D01*
X156412444Y-110602054D01*
X156346028Y-110535638D01*
X156192889Y-110433314D01*
X156022729Y-110362832D01*
X155842089Y-110326900D01*
X155657911Y-110326900D01*
X155477271Y-110362832D01*
X155307111Y-110433314D01*
X155204465Y-110501900D01*
X109915990Y-110501900D01*
X109846028Y-110431938D01*
X109692889Y-110329614D01*
X109522729Y-110259132D01*
X109342089Y-110223200D01*
X109157911Y-110223200D01*
X108977271Y-110259132D01*
X108807111Y-110329614D01*
X108653972Y-110431938D01*
X108523738Y-110562172D01*
X108421414Y-110715311D01*
X108350932Y-110885471D01*
X108315000Y-111066111D01*
X108315000Y-111250289D01*
X108350932Y-111430929D01*
X108421414Y-111601089D01*
X108523738Y-111754228D01*
X108653972Y-111884462D01*
X108807111Y-111986786D01*
X108977271Y-112057268D01*
X109157911Y-112093200D01*
X109342089Y-112093200D01*
X109522729Y-112057268D01*
X109608116Y-112021900D01*
X153846698Y-112021900D01*
X152754599Y-113114000D01*
X109795535Y-113114000D01*
X109692889Y-113045414D01*
X109522729Y-112974932D01*
X109342089Y-112939000D01*
X109157911Y-112939000D01*
X108977271Y-112974932D01*
X108807111Y-113045414D01*
X108653972Y-113147738D01*
X108523738Y-113277972D01*
X108421414Y-113431111D01*
X108350932Y-113601271D01*
X108315000Y-113781911D01*
X108315000Y-113966089D01*
X108350932Y-114146729D01*
X108410276Y-114290000D01*
X102810000Y-114290000D01*
X102810000Y-86798911D01*
X106162200Y-86798911D01*
X106162200Y-86983089D01*
X106198132Y-87163729D01*
X106268614Y-87333889D01*
X106370938Y-87487028D01*
X106501172Y-87617262D01*
X106654311Y-87719586D01*
X106824471Y-87790068D01*
X107005111Y-87826000D01*
X107189289Y-87826000D01*
X107369929Y-87790068D01*
X107540089Y-87719586D01*
X107693228Y-87617262D01*
X107823462Y-87487028D01*
X107925786Y-87333889D01*
X107996268Y-87163729D01*
X108020353Y-87042648D01*
X121000849Y-74062153D01*
X121121929Y-74038068D01*
X121292089Y-73967586D01*
X121445228Y-73865262D01*
X121575462Y-73735028D01*
X121677786Y-73581889D01*
X121748268Y-73411729D01*
X121784200Y-73231089D01*
X121784200Y-73046911D01*
X121748268Y-72866271D01*
X121677786Y-72696111D01*
X121575462Y-72542972D01*
X121445228Y-72412738D01*
X121292089Y-72310414D01*
X121121929Y-72239932D01*
X120941289Y-72204000D01*
X120757111Y-72204000D01*
X120576471Y-72239932D01*
X120406311Y-72310414D01*
X120253172Y-72412738D01*
X120122938Y-72542972D01*
X120020614Y-72696111D01*
X119950132Y-72866271D01*
X119926047Y-72987351D01*
X106945552Y-85967847D01*
X106824471Y-85991932D01*
X106654311Y-86062414D01*
X106501172Y-86164738D01*
X106370938Y-86294972D01*
X106268614Y-86448111D01*
X106198132Y-86618271D01*
X106162200Y-86798911D01*
X102810000Y-86798911D01*
X102810000Y-70974402D01*
X103037505Y-71201908D01*
X103037505Y-71201908D01*
G37*
X103037505Y-71201908D02*
X103061299Y-71230901D01*
X103090292Y-71254695D01*
X103090296Y-71254699D01*
X103105891Y-71267497D01*
X103177024Y-71325874D01*
X103309053Y-71396446D01*
X103452314Y-71439903D01*
X103563967Y-71450900D01*
X103563976Y-71450900D01*
X103601299Y-71454576D01*
X103638622Y-71450900D01*
X109074998Y-71450900D01*
X105596052Y-74929847D01*
X105474971Y-74953932D01*
X105304811Y-75024414D01*
X105151672Y-75126738D01*
X105021438Y-75256972D01*
X104919114Y-75410111D01*
X104848632Y-75580271D01*
X104812700Y-75760911D01*
X104812700Y-75945089D01*
X104848632Y-76125729D01*
X104919114Y-76295889D01*
X105021438Y-76449028D01*
X105151672Y-76579262D01*
X105304811Y-76681586D01*
X105474971Y-76752068D01*
X105655611Y-76788000D01*
X105839789Y-76788000D01*
X106020429Y-76752068D01*
X106190589Y-76681586D01*
X106343728Y-76579262D01*
X106473962Y-76449028D01*
X106576286Y-76295889D01*
X106646768Y-76125729D01*
X106670853Y-76004648D01*
X110699202Y-71976300D01*
X131270965Y-71976300D01*
X131373611Y-72044886D01*
X131543771Y-72115368D01*
X131724411Y-72151300D01*
X131867900Y-72151300D01*
X131867901Y-78449797D01*
X127595461Y-82722238D01*
X127487689Y-82700800D01*
X127466200Y-82700800D01*
X127466200Y-81370901D01*
X127536349Y-81300753D01*
X127657429Y-81276668D01*
X127827589Y-81206186D01*
X127980728Y-81103862D01*
X128110962Y-80973628D01*
X128213286Y-80820489D01*
X128283768Y-80650329D01*
X128319700Y-80469689D01*
X128319700Y-80285511D01*
X128283768Y-80104871D01*
X128213286Y-79934711D01*
X128110962Y-79781572D01*
X127980728Y-79651338D01*
X127827589Y-79549014D01*
X127657429Y-79478532D01*
X127476789Y-79442600D01*
X127292611Y-79442600D01*
X127111971Y-79478532D01*
X126941811Y-79549014D01*
X126788672Y-79651338D01*
X126658438Y-79781572D01*
X126556114Y-79934711D01*
X126485632Y-80104871D01*
X126461547Y-80225951D01*
X126195202Y-80492297D01*
X126166199Y-80516099D01*
X126121387Y-80570703D01*
X126071226Y-80631824D01*
X126013924Y-80739028D01*
X126000654Y-80763854D01*
X125957197Y-80907115D01*
X125946200Y-81018768D01*
X125946200Y-81018778D01*
X125942524Y-81056100D01*
X125946200Y-81093423D01*
X125946201Y-84701757D01*
X125942523Y-84739100D01*
X125946200Y-84776433D01*
X125946200Y-84980698D01*
X121626152Y-89300747D01*
X121505071Y-89324832D01*
X121334911Y-89395314D01*
X121181772Y-89497638D01*
X121051538Y-89627872D01*
X120949214Y-89781011D01*
X120878732Y-89951171D01*
X120842800Y-90131811D01*
X120842800Y-90315989D01*
X120878732Y-90496629D01*
X120949214Y-90666789D01*
X121051538Y-90819928D01*
X121181772Y-90950162D01*
X121334911Y-91052486D01*
X121505071Y-91122968D01*
X121685711Y-91158900D01*
X121869889Y-91158900D01*
X122050529Y-91122968D01*
X122220689Y-91052486D01*
X122373828Y-90950162D01*
X122504062Y-90819928D01*
X122606386Y-90666789D01*
X122676868Y-90496629D01*
X122700953Y-90375548D01*
X126817280Y-86259222D01*
X126955811Y-86351786D01*
X127125971Y-86422268D01*
X127306611Y-86458200D01*
X127490789Y-86458200D01*
X127671429Y-86422268D01*
X127841589Y-86351786D01*
X127994728Y-86249462D01*
X128124962Y-86119228D01*
X128180306Y-86036400D01*
X129062099Y-86036400D01*
X129017832Y-86143271D01*
X128981900Y-86323911D01*
X128981900Y-86508089D01*
X129017832Y-86688729D01*
X129088314Y-86858889D01*
X129190638Y-87012028D01*
X129282804Y-87104194D01*
X127861999Y-88525000D01*
X126038622Y-88525000D01*
X126001299Y-88521324D01*
X125963976Y-88525000D01*
X125963967Y-88525000D01*
X125852314Y-88535997D01*
X125709053Y-88579454D01*
X125577023Y-88650026D01*
X125493383Y-88718668D01*
X125461299Y-88744999D01*
X125437501Y-88773997D01*
X122637999Y-91573500D01*
X109096023Y-91573500D01*
X109058700Y-91569824D01*
X109021377Y-91573500D01*
X109021367Y-91573500D01*
X108909714Y-91584497D01*
X108766453Y-91627954D01*
X108634424Y-91698526D01*
X108518699Y-91793499D01*
X108494901Y-91822497D01*
X105335052Y-94982347D01*
X105213971Y-95006432D01*
X105043811Y-95076914D01*
X104890672Y-95179238D01*
X104760438Y-95309472D01*
X104658114Y-95462611D01*
X104587632Y-95632771D01*
X104551700Y-95813411D01*
X104551700Y-95997589D01*
X104587632Y-96178229D01*
X104658114Y-96348389D01*
X104760438Y-96501528D01*
X104890672Y-96631762D01*
X105043811Y-96734086D01*
X105213971Y-96804568D01*
X105394611Y-96840500D01*
X105578789Y-96840500D01*
X105759429Y-96804568D01*
X105929589Y-96734086D01*
X106082728Y-96631762D01*
X106212962Y-96501528D01*
X106315286Y-96348389D01*
X106385768Y-96178229D01*
X106409853Y-96057148D01*
X109373502Y-93093500D01*
X122915478Y-93093500D01*
X122952800Y-93097176D01*
X122990122Y-93093500D01*
X122990133Y-93093500D01*
X123101786Y-93082503D01*
X123245047Y-93039046D01*
X123377076Y-92968474D01*
X123492801Y-92873501D01*
X123516604Y-92844497D01*
X124142100Y-92219001D01*
X124142100Y-92452778D01*
X124138424Y-92490100D01*
X124142100Y-92527422D01*
X124142100Y-92527432D01*
X124153097Y-92639085D01*
X124191474Y-92765600D01*
X124196554Y-92782346D01*
X124267126Y-92914376D01*
X124298087Y-92952102D01*
X124362099Y-93030101D01*
X124391103Y-93053904D01*
X127843900Y-96506702D01*
X127867699Y-96535701D01*
X127896697Y-96559499D01*
X127983423Y-96630674D01*
X128100937Y-96693487D01*
X128115453Y-96701246D01*
X128258714Y-96744703D01*
X128370367Y-96755700D01*
X128370376Y-96755700D01*
X128407699Y-96759376D01*
X128445022Y-96755700D01*
X130814699Y-96755700D01*
X138066398Y-104007400D01*
X119371402Y-104007400D01*
X111433153Y-96069152D01*
X111409068Y-95948071D01*
X111338586Y-95777911D01*
X111236262Y-95624772D01*
X111106028Y-95494538D01*
X110952889Y-95392214D01*
X110782729Y-95321732D01*
X110602089Y-95285800D01*
X110417911Y-95285800D01*
X110237271Y-95321732D01*
X110067111Y-95392214D01*
X109913972Y-95494538D01*
X109783738Y-95624772D01*
X109681414Y-95777911D01*
X109610932Y-95948071D01*
X109575000Y-96128711D01*
X109575000Y-96312889D01*
X109610932Y-96493529D01*
X109681414Y-96663689D01*
X109783738Y-96816828D01*
X109913972Y-96947062D01*
X110067111Y-97049386D01*
X110237271Y-97119868D01*
X110358352Y-97143953D01*
X118492801Y-105278403D01*
X118516599Y-105307401D01*
X118632324Y-105402374D01*
X118764353Y-105472946D01*
X118907614Y-105516403D01*
X119019267Y-105527400D01*
X119019275Y-105527400D01*
X119056600Y-105531076D01*
X119093925Y-105527400D01*
X138404465Y-105527400D01*
X138507111Y-105595986D01*
X138677271Y-105666468D01*
X138857911Y-105702400D01*
X139042089Y-105702400D01*
X139222729Y-105666468D01*
X139392889Y-105595986D01*
X139546028Y-105493662D01*
X139549344Y-105490346D01*
X139901135Y-105842137D01*
X139742089Y-105810500D01*
X139557911Y-105810500D01*
X139377271Y-105846432D01*
X139207111Y-105916914D01*
X139104465Y-105985500D01*
X115813602Y-105985500D01*
X107673153Y-97845052D01*
X107649068Y-97723971D01*
X107578586Y-97553811D01*
X107476262Y-97400672D01*
X107346028Y-97270438D01*
X107192889Y-97168114D01*
X107022729Y-97097632D01*
X106842089Y-97061700D01*
X106657911Y-97061700D01*
X106477271Y-97097632D01*
X106307111Y-97168114D01*
X106153972Y-97270438D01*
X106023738Y-97400672D01*
X105921414Y-97553811D01*
X105850932Y-97723971D01*
X105815000Y-97904611D01*
X105815000Y-98088789D01*
X105850932Y-98269429D01*
X105921414Y-98439589D01*
X106023738Y-98592728D01*
X106153972Y-98722962D01*
X106307111Y-98825286D01*
X106477271Y-98895768D01*
X106598352Y-98919853D01*
X114935001Y-107256503D01*
X114958799Y-107285501D01*
X114987797Y-107309299D01*
X115074524Y-107380474D01*
X115206553Y-107451046D01*
X115349814Y-107494503D01*
X115498800Y-107509177D01*
X115536133Y-107505500D01*
X139104465Y-107505500D01*
X139207111Y-107574086D01*
X139377271Y-107644568D01*
X139557911Y-107680500D01*
X139742089Y-107680500D01*
X139922729Y-107644568D01*
X140092889Y-107574086D01*
X140246028Y-107471762D01*
X140376262Y-107341528D01*
X140478586Y-107188389D01*
X140549068Y-107018229D01*
X140585000Y-106837589D01*
X140585000Y-106653411D01*
X140553363Y-106494365D01*
X142168898Y-108109900D01*
X136806525Y-108109900D01*
X136728062Y-107992472D01*
X136597828Y-107862238D01*
X136444689Y-107759914D01*
X136274529Y-107689432D01*
X136093889Y-107653500D01*
X135909711Y-107653500D01*
X135729071Y-107689432D01*
X135558911Y-107759914D01*
X135405772Y-107862238D01*
X135275538Y-107992472D01*
X135173214Y-108145611D01*
X135102732Y-108315771D01*
X135066800Y-108496411D01*
X135066800Y-108680589D01*
X135102732Y-108861229D01*
X135173214Y-109031389D01*
X135275538Y-109184528D01*
X135405772Y-109314762D01*
X135558911Y-109417086D01*
X135729071Y-109487568D01*
X135884322Y-109518450D01*
X135990953Y-109575446D01*
X136134214Y-109618903D01*
X136245867Y-109629900D01*
X136245875Y-109629900D01*
X136283200Y-109633576D01*
X136320525Y-109629900D01*
X149560478Y-109629900D01*
X149597800Y-109633576D01*
X149635122Y-109629900D01*
X149635133Y-109629900D01*
X149746786Y-109618903D01*
X149890047Y-109575446D01*
X150022076Y-109504874D01*
X150137801Y-109409901D01*
X150161604Y-109380897D01*
X150313201Y-109229300D01*
X157785198Y-109229300D01*
X156412444Y-110602054D01*
X156346028Y-110535638D01*
X156192889Y-110433314D01*
X156022729Y-110362832D01*
X155842089Y-110326900D01*
X155657911Y-110326900D01*
X155477271Y-110362832D01*
X155307111Y-110433314D01*
X155204465Y-110501900D01*
X109915990Y-110501900D01*
X109846028Y-110431938D01*
X109692889Y-110329614D01*
X109522729Y-110259132D01*
X109342089Y-110223200D01*
X109157911Y-110223200D01*
X108977271Y-110259132D01*
X108807111Y-110329614D01*
X108653972Y-110431938D01*
X108523738Y-110562172D01*
X108421414Y-110715311D01*
X108350932Y-110885471D01*
X108315000Y-111066111D01*
X108315000Y-111250289D01*
X108350932Y-111430929D01*
X108421414Y-111601089D01*
X108523738Y-111754228D01*
X108653972Y-111884462D01*
X108807111Y-111986786D01*
X108977271Y-112057268D01*
X109157911Y-112093200D01*
X109342089Y-112093200D01*
X109522729Y-112057268D01*
X109608116Y-112021900D01*
X153846698Y-112021900D01*
X152754599Y-113114000D01*
X109795535Y-113114000D01*
X109692889Y-113045414D01*
X109522729Y-112974932D01*
X109342089Y-112939000D01*
X109157911Y-112939000D01*
X108977271Y-112974932D01*
X108807111Y-113045414D01*
X108653972Y-113147738D01*
X108523738Y-113277972D01*
X108421414Y-113431111D01*
X108350932Y-113601271D01*
X108315000Y-113781911D01*
X108315000Y-113966089D01*
X108350932Y-114146729D01*
X108410276Y-114290000D01*
X102810000Y-114290000D01*
X102810000Y-86798911D01*
X106162200Y-86798911D01*
X106162200Y-86983089D01*
X106198132Y-87163729D01*
X106268614Y-87333889D01*
X106370938Y-87487028D01*
X106501172Y-87617262D01*
X106654311Y-87719586D01*
X106824471Y-87790068D01*
X107005111Y-87826000D01*
X107189289Y-87826000D01*
X107369929Y-87790068D01*
X107540089Y-87719586D01*
X107693228Y-87617262D01*
X107823462Y-87487028D01*
X107925786Y-87333889D01*
X107996268Y-87163729D01*
X108020353Y-87042648D01*
X121000849Y-74062153D01*
X121121929Y-74038068D01*
X121292089Y-73967586D01*
X121445228Y-73865262D01*
X121575462Y-73735028D01*
X121677786Y-73581889D01*
X121748268Y-73411729D01*
X121784200Y-73231089D01*
X121784200Y-73046911D01*
X121748268Y-72866271D01*
X121677786Y-72696111D01*
X121575462Y-72542972D01*
X121445228Y-72412738D01*
X121292089Y-72310414D01*
X121121929Y-72239932D01*
X120941289Y-72204000D01*
X120757111Y-72204000D01*
X120576471Y-72239932D01*
X120406311Y-72310414D01*
X120253172Y-72412738D01*
X120122938Y-72542972D01*
X120020614Y-72696111D01*
X119950132Y-72866271D01*
X119926047Y-72987351D01*
X106945552Y-85967847D01*
X106824471Y-85991932D01*
X106654311Y-86062414D01*
X106501172Y-86164738D01*
X106370938Y-86294972D01*
X106268614Y-86448111D01*
X106198132Y-86618271D01*
X106162200Y-86798911D01*
X102810000Y-86798911D01*
X102810000Y-70974402D01*
X103037505Y-71201908D01*
G36*
X136754138Y-94533228D02*
G01*
X136884372Y-94663462D01*
X137037511Y-94765786D01*
X137207671Y-94836268D01*
X137328751Y-94860353D01*
X137992200Y-95523802D01*
X138015999Y-95552801D01*
X138044997Y-95576599D01*
X138131723Y-95647774D01*
X138256629Y-95714538D01*
X138263753Y-95718346D01*
X138407014Y-95761803D01*
X138518667Y-95772800D01*
X138518676Y-95772800D01*
X138555999Y-95776476D01*
X138593322Y-95772800D01*
X143945576Y-95772800D01*
X143973032Y-95910829D01*
X144043514Y-96080989D01*
X144145838Y-96234128D01*
X144276072Y-96364362D01*
X144429211Y-96466686D01*
X144599371Y-96537168D01*
X144654133Y-96548061D01*
X144667732Y-96616429D01*
X144738214Y-96786589D01*
X144840538Y-96939728D01*
X144970772Y-97069962D01*
X145123911Y-97172286D01*
X145294071Y-97242768D01*
X145415151Y-97266853D01*
X146184101Y-98035803D01*
X146207899Y-98064801D01*
X146323624Y-98159774D01*
X146455653Y-98230346D01*
X146598914Y-98273803D01*
X146710567Y-98284800D01*
X146710575Y-98284800D01*
X146747900Y-98288476D01*
X146785225Y-98284800D01*
X149836799Y-98284800D01*
X149683351Y-98438247D01*
X149562271Y-98462332D01*
X149392111Y-98532814D01*
X149238972Y-98635138D01*
X149108738Y-98765372D01*
X149006414Y-98918511D01*
X148935932Y-99088671D01*
X148900000Y-99269311D01*
X148900000Y-99453489D01*
X148935932Y-99634129D01*
X149006414Y-99804289D01*
X149089445Y-99928554D01*
X144404652Y-104613347D01*
X144283571Y-104637432D01*
X144113411Y-104707914D01*
X144073610Y-104734508D01*
X136317974Y-96978873D01*
X136444689Y-96926386D01*
X136597828Y-96824062D01*
X136728062Y-96693828D01*
X136830386Y-96540689D01*
X136900868Y-96370529D01*
X136936800Y-96189889D01*
X136936800Y-96005711D01*
X136900868Y-95825071D01*
X136830386Y-95654911D01*
X136728062Y-95501772D01*
X136597828Y-95371538D01*
X136539400Y-95332498D01*
X136539400Y-94634735D01*
X136607986Y-94532089D01*
X136663624Y-94397765D01*
X136754138Y-94533228D01*
X136754138Y-94533228D01*
G37*
X136754138Y-94533228D02*
X136884372Y-94663462D01*
X137037511Y-94765786D01*
X137207671Y-94836268D01*
X137328751Y-94860353D01*
X137992200Y-95523802D01*
X138015999Y-95552801D01*
X138044997Y-95576599D01*
X138131723Y-95647774D01*
X138256629Y-95714538D01*
X138263753Y-95718346D01*
X138407014Y-95761803D01*
X138518667Y-95772800D01*
X138518676Y-95772800D01*
X138555999Y-95776476D01*
X138593322Y-95772800D01*
X143945576Y-95772800D01*
X143973032Y-95910829D01*
X144043514Y-96080989D01*
X144145838Y-96234128D01*
X144276072Y-96364362D01*
X144429211Y-96466686D01*
X144599371Y-96537168D01*
X144654133Y-96548061D01*
X144667732Y-96616429D01*
X144738214Y-96786589D01*
X144840538Y-96939728D01*
X144970772Y-97069962D01*
X145123911Y-97172286D01*
X145294071Y-97242768D01*
X145415151Y-97266853D01*
X146184101Y-98035803D01*
X146207899Y-98064801D01*
X146323624Y-98159774D01*
X146455653Y-98230346D01*
X146598914Y-98273803D01*
X146710567Y-98284800D01*
X146710575Y-98284800D01*
X146747900Y-98288476D01*
X146785225Y-98284800D01*
X149836799Y-98284800D01*
X149683351Y-98438247D01*
X149562271Y-98462332D01*
X149392111Y-98532814D01*
X149238972Y-98635138D01*
X149108738Y-98765372D01*
X149006414Y-98918511D01*
X148935932Y-99088671D01*
X148900000Y-99269311D01*
X148900000Y-99453489D01*
X148935932Y-99634129D01*
X149006414Y-99804289D01*
X149089445Y-99928554D01*
X144404652Y-104613347D01*
X144283571Y-104637432D01*
X144113411Y-104707914D01*
X144073610Y-104734508D01*
X136317974Y-96978873D01*
X136444689Y-96926386D01*
X136597828Y-96824062D01*
X136728062Y-96693828D01*
X136830386Y-96540689D01*
X136900868Y-96370529D01*
X136936800Y-96189889D01*
X136936800Y-96005711D01*
X136900868Y-95825071D01*
X136830386Y-95654911D01*
X136728062Y-95501772D01*
X136597828Y-95371538D01*
X136539400Y-95332498D01*
X136539400Y-94634735D01*
X136607986Y-94532089D01*
X136663624Y-94397765D01*
X136754138Y-94533228D01*
G36*
X167913001Y-96579403D02*
G01*
X167936799Y-96608401D01*
X168052524Y-96703374D01*
X168184553Y-96773946D01*
X168327814Y-96817403D01*
X168439467Y-96828400D01*
X168439476Y-96828400D01*
X168476799Y-96832076D01*
X168514122Y-96828400D01*
X169030598Y-96828400D01*
X161520899Y-104338100D01*
X155064302Y-104338100D01*
X155813149Y-103589253D01*
X155934229Y-103565168D01*
X156104389Y-103494686D01*
X156257528Y-103392362D01*
X156387762Y-103262128D01*
X156490086Y-103108989D01*
X156560568Y-102938829D01*
X156596500Y-102758189D01*
X156596500Y-102574011D01*
X156560568Y-102393371D01*
X156490086Y-102223211D01*
X156390032Y-102073469D01*
X160995849Y-97467653D01*
X161116929Y-97443568D01*
X161287089Y-97373086D01*
X161440228Y-97270762D01*
X161570462Y-97140528D01*
X161672786Y-96987389D01*
X161709149Y-96899600D01*
X163364078Y-96899600D01*
X163401400Y-96903276D01*
X163438722Y-96899600D01*
X163438733Y-96899600D01*
X163550386Y-96888603D01*
X163693647Y-96845146D01*
X163702152Y-96840600D01*
X163727489Y-96840600D01*
X163908129Y-96804668D01*
X164078289Y-96734186D01*
X164180935Y-96665600D01*
X165129731Y-96665600D01*
X165196414Y-96826589D01*
X165298738Y-96979728D01*
X165428972Y-97109962D01*
X165582111Y-97212286D01*
X165752271Y-97282768D01*
X165932911Y-97318700D01*
X166117089Y-97318700D01*
X166297729Y-97282768D01*
X166467889Y-97212286D01*
X166621028Y-97109962D01*
X166751262Y-96979728D01*
X166853586Y-96826589D01*
X166924068Y-96656429D01*
X166960000Y-96475789D01*
X166960000Y-96291611D01*
X166924068Y-96110971D01*
X166853586Y-95940811D01*
X166751262Y-95787672D01*
X166621028Y-95657438D01*
X166467889Y-95555114D01*
X166297729Y-95484632D01*
X166176648Y-95460547D01*
X166110704Y-95394603D01*
X166086901Y-95365599D01*
X165971176Y-95270626D01*
X165839147Y-95200054D01*
X165695886Y-95156597D01*
X165584233Y-95145600D01*
X165584222Y-95145600D01*
X165546900Y-95141924D01*
X165509578Y-95145600D01*
X165064721Y-95145600D01*
X165065300Y-95142689D01*
X165065300Y-94958511D01*
X165029368Y-94777871D01*
X165014593Y-94742200D01*
X166075799Y-94742200D01*
X167913001Y-96579403D01*
X167913001Y-96579403D01*
G37*
X167913001Y-96579403D02*
X167936799Y-96608401D01*
X168052524Y-96703374D01*
X168184553Y-96773946D01*
X168327814Y-96817403D01*
X168439467Y-96828400D01*
X168439476Y-96828400D01*
X168476799Y-96832076D01*
X168514122Y-96828400D01*
X169030598Y-96828400D01*
X161520899Y-104338100D01*
X155064302Y-104338100D01*
X155813149Y-103589253D01*
X155934229Y-103565168D01*
X156104389Y-103494686D01*
X156257528Y-103392362D01*
X156387762Y-103262128D01*
X156490086Y-103108989D01*
X156560568Y-102938829D01*
X156596500Y-102758189D01*
X156596500Y-102574011D01*
X156560568Y-102393371D01*
X156490086Y-102223211D01*
X156390032Y-102073469D01*
X160995849Y-97467653D01*
X161116929Y-97443568D01*
X161287089Y-97373086D01*
X161440228Y-97270762D01*
X161570462Y-97140528D01*
X161672786Y-96987389D01*
X161709149Y-96899600D01*
X163364078Y-96899600D01*
X163401400Y-96903276D01*
X163438722Y-96899600D01*
X163438733Y-96899600D01*
X163550386Y-96888603D01*
X163693647Y-96845146D01*
X163702152Y-96840600D01*
X163727489Y-96840600D01*
X163908129Y-96804668D01*
X164078289Y-96734186D01*
X164180935Y-96665600D01*
X165129731Y-96665600D01*
X165196414Y-96826589D01*
X165298738Y-96979728D01*
X165428972Y-97109962D01*
X165582111Y-97212286D01*
X165752271Y-97282768D01*
X165932911Y-97318700D01*
X166117089Y-97318700D01*
X166297729Y-97282768D01*
X166467889Y-97212286D01*
X166621028Y-97109962D01*
X166751262Y-96979728D01*
X166853586Y-96826589D01*
X166924068Y-96656429D01*
X166960000Y-96475789D01*
X166960000Y-96291611D01*
X166924068Y-96110971D01*
X166853586Y-95940811D01*
X166751262Y-95787672D01*
X166621028Y-95657438D01*
X166467889Y-95555114D01*
X166297729Y-95484632D01*
X166176648Y-95460547D01*
X166110704Y-95394603D01*
X166086901Y-95365599D01*
X165971176Y-95270626D01*
X165839147Y-95200054D01*
X165695886Y-95156597D01*
X165584233Y-95145600D01*
X165584222Y-95145600D01*
X165546900Y-95141924D01*
X165509578Y-95145600D01*
X165064721Y-95145600D01*
X165065300Y-95142689D01*
X165065300Y-94958511D01*
X165029368Y-94777871D01*
X165014593Y-94742200D01*
X166075799Y-94742200D01*
X167913001Y-96579403D01*
G36*
X189740401Y-84505496D02*
G01*
X185277999Y-88967900D01*
X157347702Y-88967900D01*
X157364004Y-88951598D01*
X157393001Y-88927801D01*
X157487974Y-88812076D01*
X157558546Y-88680047D01*
X157602003Y-88536786D01*
X157613000Y-88425133D01*
X157613000Y-88425124D01*
X157616676Y-88387801D01*
X157613000Y-88350478D01*
X157613000Y-86306425D01*
X157616676Y-86269100D01*
X157613000Y-86231775D01*
X157613000Y-86231767D01*
X157602003Y-86120114D01*
X157558546Y-85976853D01*
X157487974Y-85844824D01*
X157393001Y-85729099D01*
X157364002Y-85705300D01*
X156940301Y-85281600D01*
X171941078Y-85281600D01*
X171978400Y-85285276D01*
X172015722Y-85281600D01*
X172015733Y-85281600D01*
X172127386Y-85270603D01*
X172270647Y-85227146D01*
X172402676Y-85156574D01*
X172518401Y-85061601D01*
X172542204Y-85032597D01*
X189261730Y-68313072D01*
X189740400Y-68313072D01*
X189740401Y-84505496D01*
X189740401Y-84505496D01*
G37*
X189740401Y-84505496D02*
X185277999Y-88967900D01*
X157347702Y-88967900D01*
X157364004Y-88951598D01*
X157393001Y-88927801D01*
X157487974Y-88812076D01*
X157558546Y-88680047D01*
X157602003Y-88536786D01*
X157613000Y-88425133D01*
X157613000Y-88425124D01*
X157616676Y-88387801D01*
X157613000Y-88350478D01*
X157613000Y-86306425D01*
X157616676Y-86269100D01*
X157613000Y-86231775D01*
X157613000Y-86231767D01*
X157602003Y-86120114D01*
X157558546Y-85976853D01*
X157487974Y-85844824D01*
X157393001Y-85729099D01*
X157364002Y-85705300D01*
X156940301Y-85281600D01*
X171941078Y-85281600D01*
X171978400Y-85285276D01*
X172015722Y-85281600D01*
X172015733Y-85281600D01*
X172127386Y-85270603D01*
X172270647Y-85227146D01*
X172402676Y-85156574D01*
X172518401Y-85061601D01*
X172542204Y-85032597D01*
X189261730Y-68313072D01*
X189740400Y-68313072D01*
X189740401Y-84505496D01*
G36*
X141523199Y-83979100D02*
G01*
X128488201Y-83979100D01*
X132942702Y-79524600D01*
X137068699Y-79524600D01*
X141523199Y-83979100D01*
X141523199Y-83979100D01*
G37*
X141523199Y-83979100D02*
X128488201Y-83979100D01*
X132942702Y-79524600D01*
X137068699Y-79524600D01*
X141523199Y-83979100D01*
G36*
X142348750Y-66873000D02*
G01*
X143373000Y-66873000D01*
X143373000Y-66853000D01*
X143627000Y-66853000D01*
X143627000Y-66873000D01*
X145373000Y-66873000D01*
X145373000Y-66853000D01*
X145627000Y-66853000D01*
X145627000Y-66873000D01*
X145647000Y-66873000D01*
X145647000Y-67127000D01*
X145627000Y-67127000D01*
X145627000Y-68151250D01*
X145785750Y-68310000D01*
X146175000Y-68313072D01*
X146299482Y-68300812D01*
X146419180Y-68264502D01*
X146500000Y-68221302D01*
X146580820Y-68264502D01*
X146700518Y-68300812D01*
X146825000Y-68313072D01*
X147003459Y-68313072D01*
X147032432Y-68458729D01*
X147102914Y-68628889D01*
X147205238Y-68782028D01*
X147335472Y-68912262D01*
X147488611Y-69014586D01*
X147658771Y-69085068D01*
X147839411Y-69121000D01*
X148023589Y-69121000D01*
X148204229Y-69085068D01*
X148374389Y-69014586D01*
X148527528Y-68912262D01*
X148657762Y-68782028D01*
X148760086Y-68628889D01*
X148830568Y-68458729D01*
X148859541Y-68313072D01*
X150112426Y-68313072D01*
X147512703Y-70912796D01*
X147483699Y-70936599D01*
X147438542Y-70991624D01*
X147388726Y-71052324D01*
X147318155Y-71184353D01*
X147318154Y-71184354D01*
X147274697Y-71327615D01*
X147263700Y-71439268D01*
X147263700Y-71439278D01*
X147260024Y-71476600D01*
X147263700Y-71513923D01*
X147263701Y-72592197D01*
X146232199Y-73623700D01*
X146179011Y-73623700D01*
X145998371Y-73659632D01*
X145828211Y-73730114D01*
X145675072Y-73832438D01*
X145544838Y-73962672D01*
X145442514Y-74115811D01*
X145372032Y-74285971D01*
X145336100Y-74466611D01*
X145336100Y-74489500D01*
X140619159Y-74489500D01*
X140573186Y-74378511D01*
X140470862Y-74225372D01*
X140340628Y-74095138D01*
X140187489Y-73992814D01*
X140017329Y-73922332D01*
X139896249Y-73898247D01*
X139814896Y-73816894D01*
X139838162Y-73793628D01*
X139940486Y-73640489D01*
X140010968Y-73470329D01*
X140046900Y-73289689D01*
X140046900Y-73105511D01*
X140010968Y-72924871D01*
X139940486Y-72754711D01*
X139871900Y-72652065D01*
X139871900Y-68963701D01*
X141160601Y-67675000D01*
X142186928Y-67675000D01*
X142199188Y-67799482D01*
X142235498Y-67919180D01*
X142294463Y-68029494D01*
X142373815Y-68126185D01*
X142470506Y-68205537D01*
X142580820Y-68264502D01*
X142700518Y-68300812D01*
X142825000Y-68313072D01*
X143214250Y-68310000D01*
X143373000Y-68151250D01*
X143373000Y-67127000D01*
X143627000Y-67127000D01*
X143627000Y-68151250D01*
X143785750Y-68310000D01*
X144175000Y-68313072D01*
X144299482Y-68300812D01*
X144419180Y-68264502D01*
X144500000Y-68221302D01*
X144580820Y-68264502D01*
X144700518Y-68300812D01*
X144825000Y-68313072D01*
X145214250Y-68310000D01*
X145373000Y-68151250D01*
X145373000Y-67127000D01*
X143627000Y-67127000D01*
X143373000Y-67127000D01*
X142348750Y-67127000D01*
X142190000Y-67285750D01*
X142186928Y-67675000D01*
X141160601Y-67675000D01*
X142076002Y-66759600D01*
X142235350Y-66759600D01*
X142348750Y-66873000D01*
X142348750Y-66873000D01*
G37*
X142348750Y-66873000D02*
X143373000Y-66873000D01*
X143373000Y-66853000D01*
X143627000Y-66853000D01*
X143627000Y-66873000D01*
X145373000Y-66873000D01*
X145373000Y-66853000D01*
X145627000Y-66853000D01*
X145627000Y-66873000D01*
X145647000Y-66873000D01*
X145647000Y-67127000D01*
X145627000Y-67127000D01*
X145627000Y-68151250D01*
X145785750Y-68310000D01*
X146175000Y-68313072D01*
X146299482Y-68300812D01*
X146419180Y-68264502D01*
X146500000Y-68221302D01*
X146580820Y-68264502D01*
X146700518Y-68300812D01*
X146825000Y-68313072D01*
X147003459Y-68313072D01*
X147032432Y-68458729D01*
X147102914Y-68628889D01*
X147205238Y-68782028D01*
X147335472Y-68912262D01*
X147488611Y-69014586D01*
X147658771Y-69085068D01*
X147839411Y-69121000D01*
X148023589Y-69121000D01*
X148204229Y-69085068D01*
X148374389Y-69014586D01*
X148527528Y-68912262D01*
X148657762Y-68782028D01*
X148760086Y-68628889D01*
X148830568Y-68458729D01*
X148859541Y-68313072D01*
X150112426Y-68313072D01*
X147512703Y-70912796D01*
X147483699Y-70936599D01*
X147438542Y-70991624D01*
X147388726Y-71052324D01*
X147318155Y-71184353D01*
X147318154Y-71184354D01*
X147274697Y-71327615D01*
X147263700Y-71439268D01*
X147263700Y-71439278D01*
X147260024Y-71476600D01*
X147263700Y-71513923D01*
X147263701Y-72592197D01*
X146232199Y-73623700D01*
X146179011Y-73623700D01*
X145998371Y-73659632D01*
X145828211Y-73730114D01*
X145675072Y-73832438D01*
X145544838Y-73962672D01*
X145442514Y-74115811D01*
X145372032Y-74285971D01*
X145336100Y-74466611D01*
X145336100Y-74489500D01*
X140619159Y-74489500D01*
X140573186Y-74378511D01*
X140470862Y-74225372D01*
X140340628Y-74095138D01*
X140187489Y-73992814D01*
X140017329Y-73922332D01*
X139896249Y-73898247D01*
X139814896Y-73816894D01*
X139838162Y-73793628D01*
X139940486Y-73640489D01*
X140010968Y-73470329D01*
X140046900Y-73289689D01*
X140046900Y-73105511D01*
X140010968Y-72924871D01*
X139940486Y-72754711D01*
X139871900Y-72652065D01*
X139871900Y-68963701D01*
X141160601Y-67675000D01*
X142186928Y-67675000D01*
X142199188Y-67799482D01*
X142235498Y-67919180D01*
X142294463Y-68029494D01*
X142373815Y-68126185D01*
X142470506Y-68205537D01*
X142580820Y-68264502D01*
X142700518Y-68300812D01*
X142825000Y-68313072D01*
X143214250Y-68310000D01*
X143373000Y-68151250D01*
X143373000Y-67127000D01*
X143627000Y-67127000D01*
X143627000Y-68151250D01*
X143785750Y-68310000D01*
X144175000Y-68313072D01*
X144299482Y-68300812D01*
X144419180Y-68264502D01*
X144500000Y-68221302D01*
X144580820Y-68264502D01*
X144700518Y-68300812D01*
X144825000Y-68313072D01*
X145214250Y-68310000D01*
X145373000Y-68151250D01*
X145373000Y-67127000D01*
X143627000Y-67127000D01*
X143373000Y-67127000D01*
X142348750Y-67127000D01*
X142190000Y-67285750D01*
X142186928Y-67675000D01*
X141160601Y-67675000D01*
X142076002Y-66759600D01*
X142235350Y-66759600D01*
X142348750Y-66873000D01*
M02*
