G04 #@! TF.GenerationSoftware,KiCad,Pcbnew,(5.1.0-0)*
G04 #@! TF.CreationDate,2019-05-28T22:45:59-04:00*
G04 #@! TF.ProjectId,Business Card,42757369-6e65-4737-9320-436172642e6b,rev?*
G04 #@! TF.SameCoordinates,Original*
G04 #@! TF.FileFunction,Soldermask,Top*
G04 #@! TF.FilePolarity,Negative*
%FSLAX46Y46*%
G04 Gerber Fmt 4.6, Leading zero omitted, Abs format (unit mm)*
G04 Created by KiCad (PCBNEW (5.1.0-0)) date 2019-05-28 22:45:59*
%MOMM*%
%LPD*%
G04 APERTURE LIST*
%ADD10R,4.900000X2.400000*%
%ADD11C,0.950000*%
%ADD12C,0.100000*%
%ADD13C,1.000000*%
%ADD14R,1.575000X2.300000*%
%ADD15R,2.775000X2.300000*%
%ADD16R,1.875000X2.500000*%
%ADD17R,0.850000X1.780000*%
%ADD18C,2.940000*%
%ADD19R,1.900000X1.650000*%
%ADD20R,1.900000X1.700000*%
%ADD21R,1.950000X1.700000*%
%ADD22R,1.700000X1.950000*%
%ADD23R,0.780000X4.400000*%
%ADD24R,0.400000X0.400000*%
%ADD25C,1.300000*%
%ADD26R,1.100000X1.900000*%
%ADD27R,1.400000X1.200000*%
%ADD28R,0.800000X3.900000*%
%ADD29R,2.127200X2.127200*%
%ADD30O,2.127200X2.127200*%
G04 APERTURE END LIST*
D10*
X175250000Y-93000000D03*
X166750000Y-93000000D03*
D11*
X147171082Y-71610564D03*
D12*
G36*
X146835206Y-72618191D02*
G01*
X146163455Y-71946440D01*
X147506958Y-70602937D01*
X148178709Y-71274688D01*
X146835206Y-72618191D01*
X146835206Y-72618191D01*
G37*
D11*
X147736767Y-72176250D03*
D12*
G36*
X147400891Y-73183877D02*
G01*
X146729140Y-72512126D01*
X148072643Y-71168623D01*
X148744394Y-71840374D01*
X147400891Y-73183877D01*
X147400891Y-73183877D01*
G37*
D11*
X148302452Y-72741935D03*
D12*
G36*
X147966576Y-73749562D02*
G01*
X147294825Y-73077811D01*
X148638328Y-71734308D01*
X149310079Y-72406059D01*
X147966576Y-73749562D01*
X147966576Y-73749562D01*
G37*
D11*
X148868138Y-73307620D03*
D12*
G36*
X148532262Y-74315247D02*
G01*
X147860511Y-73643496D01*
X149204014Y-72299993D01*
X149875765Y-72971744D01*
X148532262Y-74315247D01*
X148532262Y-74315247D01*
G37*
D11*
X149433823Y-73873306D03*
D12*
G36*
X149097947Y-74880933D02*
G01*
X148426196Y-74209182D01*
X149769699Y-72865679D01*
X150441450Y-73537430D01*
X149097947Y-74880933D01*
X149097947Y-74880933D01*
G37*
D11*
X149999509Y-74438991D03*
D12*
G36*
X149663633Y-75446618D02*
G01*
X148991882Y-74774867D01*
X150335385Y-73431364D01*
X151007136Y-74103115D01*
X149663633Y-75446618D01*
X149663633Y-75446618D01*
G37*
D11*
X150565194Y-75004677D03*
D12*
G36*
X150229318Y-76012304D02*
G01*
X149557567Y-75340553D01*
X150901070Y-73997050D01*
X151572821Y-74668801D01*
X150229318Y-76012304D01*
X150229318Y-76012304D01*
G37*
D11*
X151130880Y-75570362D03*
D12*
G36*
X150795004Y-76577989D02*
G01*
X150123253Y-75906238D01*
X151466756Y-74562735D01*
X152138507Y-75234486D01*
X150795004Y-76577989D01*
X150795004Y-76577989D01*
G37*
D11*
X151696565Y-76136048D03*
D12*
G36*
X151360689Y-77143675D02*
G01*
X150688938Y-76471924D01*
X152032441Y-75128421D01*
X152704192Y-75800172D01*
X151360689Y-77143675D01*
X151360689Y-77143675D01*
G37*
D11*
X152262250Y-76701733D03*
D12*
G36*
X151926374Y-77709360D02*
G01*
X151254623Y-77037609D01*
X152598126Y-75694106D01*
X153269877Y-76365857D01*
X151926374Y-77709360D01*
X151926374Y-77709360D01*
G37*
D11*
X152827936Y-77267418D03*
D12*
G36*
X152492060Y-78275045D02*
G01*
X151820309Y-77603294D01*
X153163812Y-76259791D01*
X153835563Y-76931542D01*
X152492060Y-78275045D01*
X152492060Y-78275045D01*
G37*
D11*
X152827936Y-79671582D03*
D12*
G36*
X151820309Y-79335706D02*
G01*
X152492060Y-78663955D01*
X153835563Y-80007458D01*
X153163812Y-80679209D01*
X151820309Y-79335706D01*
X151820309Y-79335706D01*
G37*
D11*
X152262250Y-80237267D03*
D12*
G36*
X151254623Y-79901391D02*
G01*
X151926374Y-79229640D01*
X153269877Y-80573143D01*
X152598126Y-81244894D01*
X151254623Y-79901391D01*
X151254623Y-79901391D01*
G37*
D11*
X151696565Y-80802952D03*
D12*
G36*
X150688938Y-80467076D02*
G01*
X151360689Y-79795325D01*
X152704192Y-81138828D01*
X152032441Y-81810579D01*
X150688938Y-80467076D01*
X150688938Y-80467076D01*
G37*
D11*
X151130880Y-81368638D03*
D12*
G36*
X150123253Y-81032762D02*
G01*
X150795004Y-80361011D01*
X152138507Y-81704514D01*
X151466756Y-82376265D01*
X150123253Y-81032762D01*
X150123253Y-81032762D01*
G37*
D11*
X150565194Y-81934323D03*
D12*
G36*
X149557567Y-81598447D02*
G01*
X150229318Y-80926696D01*
X151572821Y-82270199D01*
X150901070Y-82941950D01*
X149557567Y-81598447D01*
X149557567Y-81598447D01*
G37*
D11*
X149999509Y-82500009D03*
D12*
G36*
X148991882Y-82164133D02*
G01*
X149663633Y-81492382D01*
X151007136Y-82835885D01*
X150335385Y-83507636D01*
X148991882Y-82164133D01*
X148991882Y-82164133D01*
G37*
D11*
X149433823Y-83065694D03*
D12*
G36*
X148426196Y-82729818D02*
G01*
X149097947Y-82058067D01*
X150441450Y-83401570D01*
X149769699Y-84073321D01*
X148426196Y-82729818D01*
X148426196Y-82729818D01*
G37*
D11*
X148868138Y-83631380D03*
D12*
G36*
X147860511Y-83295504D02*
G01*
X148532262Y-82623753D01*
X149875765Y-83967256D01*
X149204014Y-84639007D01*
X147860511Y-83295504D01*
X147860511Y-83295504D01*
G37*
D11*
X148302452Y-84197065D03*
D12*
G36*
X147294825Y-83861189D02*
G01*
X147966576Y-83189438D01*
X149310079Y-84532941D01*
X148638328Y-85204692D01*
X147294825Y-83861189D01*
X147294825Y-83861189D01*
G37*
D11*
X147736767Y-84762750D03*
D12*
G36*
X146729140Y-84426874D02*
G01*
X147400891Y-83755123D01*
X148744394Y-85098626D01*
X148072643Y-85770377D01*
X146729140Y-84426874D01*
X146729140Y-84426874D01*
G37*
D11*
X147171082Y-85328436D03*
D12*
G36*
X146163455Y-84992560D02*
G01*
X146835206Y-84320809D01*
X148178709Y-85664312D01*
X147506958Y-86336063D01*
X146163455Y-84992560D01*
X146163455Y-84992560D01*
G37*
D11*
X144766918Y-85328436D03*
D12*
G36*
X144431042Y-86336063D02*
G01*
X143759291Y-85664312D01*
X145102794Y-84320809D01*
X145774545Y-84992560D01*
X144431042Y-86336063D01*
X144431042Y-86336063D01*
G37*
D11*
X144201233Y-84762750D03*
D12*
G36*
X143865357Y-85770377D02*
G01*
X143193606Y-85098626D01*
X144537109Y-83755123D01*
X145208860Y-84426874D01*
X143865357Y-85770377D01*
X143865357Y-85770377D01*
G37*
D11*
X143635548Y-84197065D03*
D12*
G36*
X143299672Y-85204692D02*
G01*
X142627921Y-84532941D01*
X143971424Y-83189438D01*
X144643175Y-83861189D01*
X143299672Y-85204692D01*
X143299672Y-85204692D01*
G37*
D11*
X143069862Y-83631380D03*
D12*
G36*
X142733986Y-84639007D02*
G01*
X142062235Y-83967256D01*
X143405738Y-82623753D01*
X144077489Y-83295504D01*
X142733986Y-84639007D01*
X142733986Y-84639007D01*
G37*
D11*
X142504177Y-83065694D03*
D12*
G36*
X142168301Y-84073321D02*
G01*
X141496550Y-83401570D01*
X142840053Y-82058067D01*
X143511804Y-82729818D01*
X142168301Y-84073321D01*
X142168301Y-84073321D01*
G37*
D11*
X141938491Y-82500009D03*
D12*
G36*
X141602615Y-83507636D02*
G01*
X140930864Y-82835885D01*
X142274367Y-81492382D01*
X142946118Y-82164133D01*
X141602615Y-83507636D01*
X141602615Y-83507636D01*
G37*
D11*
X141372806Y-81934323D03*
D12*
G36*
X141036930Y-82941950D02*
G01*
X140365179Y-82270199D01*
X141708682Y-80926696D01*
X142380433Y-81598447D01*
X141036930Y-82941950D01*
X141036930Y-82941950D01*
G37*
D11*
X140807120Y-81368638D03*
D12*
G36*
X140471244Y-82376265D02*
G01*
X139799493Y-81704514D01*
X141142996Y-80361011D01*
X141814747Y-81032762D01*
X140471244Y-82376265D01*
X140471244Y-82376265D01*
G37*
D11*
X140241435Y-80802952D03*
D12*
G36*
X139905559Y-81810579D02*
G01*
X139233808Y-81138828D01*
X140577311Y-79795325D01*
X141249062Y-80467076D01*
X139905559Y-81810579D01*
X139905559Y-81810579D01*
G37*
D11*
X139675750Y-80237267D03*
D12*
G36*
X139339874Y-81244894D02*
G01*
X138668123Y-80573143D01*
X140011626Y-79229640D01*
X140683377Y-79901391D01*
X139339874Y-81244894D01*
X139339874Y-81244894D01*
G37*
D11*
X139110064Y-79671582D03*
D12*
G36*
X138774188Y-80679209D02*
G01*
X138102437Y-80007458D01*
X139445940Y-78663955D01*
X140117691Y-79335706D01*
X138774188Y-80679209D01*
X138774188Y-80679209D01*
G37*
D11*
X139110064Y-77267418D03*
D12*
G36*
X138102437Y-76931542D02*
G01*
X138774188Y-76259791D01*
X140117691Y-77603294D01*
X139445940Y-78275045D01*
X138102437Y-76931542D01*
X138102437Y-76931542D01*
G37*
D11*
X139675750Y-76701733D03*
D12*
G36*
X138668123Y-76365857D02*
G01*
X139339874Y-75694106D01*
X140683377Y-77037609D01*
X140011626Y-77709360D01*
X138668123Y-76365857D01*
X138668123Y-76365857D01*
G37*
D11*
X140241435Y-76136048D03*
D12*
G36*
X139233808Y-75800172D02*
G01*
X139905559Y-75128421D01*
X141249062Y-76471924D01*
X140577311Y-77143675D01*
X139233808Y-75800172D01*
X139233808Y-75800172D01*
G37*
D11*
X140807120Y-75570362D03*
D12*
G36*
X139799493Y-75234486D02*
G01*
X140471244Y-74562735D01*
X141814747Y-75906238D01*
X141142996Y-76577989D01*
X139799493Y-75234486D01*
X139799493Y-75234486D01*
G37*
D11*
X141372806Y-75004677D03*
D12*
G36*
X140365179Y-74668801D02*
G01*
X141036930Y-73997050D01*
X142380433Y-75340553D01*
X141708682Y-76012304D01*
X140365179Y-74668801D01*
X140365179Y-74668801D01*
G37*
D11*
X141938491Y-74438991D03*
D12*
G36*
X140930864Y-74103115D02*
G01*
X141602615Y-73431364D01*
X142946118Y-74774867D01*
X142274367Y-75446618D01*
X140930864Y-74103115D01*
X140930864Y-74103115D01*
G37*
D11*
X142504177Y-73873306D03*
D12*
G36*
X141496550Y-73537430D02*
G01*
X142168301Y-72865679D01*
X143511804Y-74209182D01*
X142840053Y-74880933D01*
X141496550Y-73537430D01*
X141496550Y-73537430D01*
G37*
D11*
X143069862Y-73307620D03*
D12*
G36*
X142062235Y-72971744D02*
G01*
X142733986Y-72299993D01*
X144077489Y-73643496D01*
X143405738Y-74315247D01*
X142062235Y-72971744D01*
X142062235Y-72971744D01*
G37*
D11*
X143635548Y-72741935D03*
D12*
G36*
X142627921Y-72406059D02*
G01*
X143299672Y-71734308D01*
X144643175Y-73077811D01*
X143971424Y-73749562D01*
X142627921Y-72406059D01*
X142627921Y-72406059D01*
G37*
D11*
X144201233Y-72176250D03*
D12*
G36*
X143193606Y-71840374D02*
G01*
X143865357Y-71168623D01*
X145208860Y-72512126D01*
X144537109Y-73183877D01*
X143193606Y-71840374D01*
X143193606Y-71840374D01*
G37*
D11*
X144766918Y-71610564D03*
D12*
G36*
X143759291Y-71274688D02*
G01*
X144431042Y-70602937D01*
X145774545Y-71946440D01*
X145102794Y-72618191D01*
X143759291Y-71274688D01*
X143759291Y-71274688D01*
G37*
D13*
X176968000Y-111222000D03*
X181032000Y-111222000D03*
D14*
X179840000Y-113000000D03*
X178160000Y-113000000D03*
D15*
X181910000Y-113000000D03*
X176090000Y-113000000D03*
D16*
X182175000Y-110714000D03*
X175825000Y-110714000D03*
D17*
X180300000Y-110340000D03*
X179650000Y-110340000D03*
X179000000Y-110340000D03*
X178350000Y-110340000D03*
X177730000Y-110333000D03*
D18*
X104619672Y-88380328D03*
D12*
G36*
X104962619Y-90802169D02*
G01*
X102197831Y-88037381D01*
X104276725Y-85958487D01*
X107041513Y-88723275D01*
X104962619Y-90802169D01*
X104962619Y-90802169D01*
G37*
D18*
X125380328Y-67619672D03*
D12*
G36*
X125723275Y-70041513D02*
G01*
X122958487Y-67276725D01*
X125037381Y-65197831D01*
X127802169Y-67962619D01*
X125723275Y-70041513D01*
X125723275Y-70041513D01*
G37*
D18*
X167619672Y-67619672D03*
D12*
G36*
X165197831Y-67962619D02*
G01*
X167962619Y-65197831D01*
X170041513Y-67276725D01*
X167276725Y-70041513D01*
X165197831Y-67962619D01*
X165197831Y-67962619D01*
G37*
D18*
X188380328Y-88380328D03*
D12*
G36*
X185958487Y-88723275D02*
G01*
X188723275Y-85958487D01*
X190802169Y-88037381D01*
X188037381Y-90802169D01*
X185958487Y-88723275D01*
X185958487Y-88723275D01*
G37*
D19*
X123750000Y-112500000D03*
X126250000Y-112500000D03*
X123750000Y-110000000D03*
X126250000Y-110000000D03*
X123750000Y-93500000D03*
X126250000Y-93500000D03*
X106750000Y-93500000D03*
X109250000Y-93500000D03*
D20*
X185650000Y-111000000D03*
X188350000Y-111000000D03*
D21*
X120475000Y-97250000D03*
X112525000Y-97250000D03*
X120475000Y-92750000D03*
X112525000Y-92750000D03*
D22*
X123250000Y-106975000D03*
X123250000Y-99025000D03*
X127750000Y-106975000D03*
X127750000Y-99025000D03*
D21*
X112525000Y-108750000D03*
X120475000Y-108750000D03*
X112525000Y-113250000D03*
X120475000Y-113250000D03*
X179025000Y-97250000D03*
X186975000Y-97250000D03*
X179025000Y-101750000D03*
X186975000Y-101750000D03*
D22*
X109750000Y-99025000D03*
X109750000Y-106975000D03*
X105250000Y-99025000D03*
X105250000Y-106975000D03*
D21*
X166025000Y-101750000D03*
X173975000Y-101750000D03*
X166025000Y-106250000D03*
X173975000Y-106250000D03*
D20*
X128650000Y-74000000D03*
X131350000Y-74000000D03*
X128650000Y-76000000D03*
X131350000Y-76000000D03*
X131350000Y-78000000D03*
X128650000Y-78000000D03*
X128650000Y-80000000D03*
X131350000Y-80000000D03*
X128650000Y-82000000D03*
X131350000Y-82000000D03*
X128650000Y-84000000D03*
X131350000Y-84000000D03*
X128650000Y-86000000D03*
X131350000Y-86000000D03*
X128650000Y-88000000D03*
X131350000Y-88000000D03*
X161650000Y-74000000D03*
X164350000Y-74000000D03*
X161650000Y-76000000D03*
X164350000Y-76000000D03*
D11*
X150817695Y-87161197D03*
D12*
G36*
X149774712Y-86789966D02*
G01*
X150446464Y-86118214D01*
X151860678Y-87532428D01*
X151188926Y-88204180D01*
X149774712Y-86789966D01*
X149774712Y-86789966D01*
G37*
D11*
X150252010Y-87726883D03*
D12*
G36*
X149209027Y-87355652D02*
G01*
X149880779Y-86683900D01*
X151294993Y-88098114D01*
X150623241Y-88769866D01*
X149209027Y-87355652D01*
X149209027Y-87355652D01*
G37*
D11*
X149686324Y-88292568D03*
D12*
G36*
X148643341Y-87921337D02*
G01*
X149315093Y-87249585D01*
X150729307Y-88663799D01*
X150057555Y-89335551D01*
X148643341Y-87921337D01*
X148643341Y-87921337D01*
G37*
D11*
X149120639Y-88858253D03*
D12*
G36*
X148077656Y-88487022D02*
G01*
X148749408Y-87815270D01*
X150163622Y-89229484D01*
X149491870Y-89901236D01*
X148077656Y-88487022D01*
X148077656Y-88487022D01*
G37*
D11*
X148554953Y-89423939D03*
D12*
G36*
X147511970Y-89052708D02*
G01*
X148183722Y-88380956D01*
X149597936Y-89795170D01*
X148926184Y-90466922D01*
X147511970Y-89052708D01*
X147511970Y-89052708D01*
G37*
D11*
X147989268Y-89989624D03*
D12*
G36*
X146946285Y-89618393D02*
G01*
X147618037Y-88946641D01*
X149032251Y-90360855D01*
X148360499Y-91032607D01*
X146946285Y-89618393D01*
X146946285Y-89618393D01*
G37*
D11*
X147423583Y-90555310D03*
D12*
G36*
X146380600Y-90184079D02*
G01*
X147052352Y-89512327D01*
X148466566Y-90926541D01*
X147794814Y-91598293D01*
X146380600Y-90184079D01*
X146380600Y-90184079D01*
G37*
D11*
X146857897Y-91120995D03*
D12*
G36*
X145814914Y-90749764D02*
G01*
X146486666Y-90078012D01*
X147900880Y-91492226D01*
X147229128Y-92163978D01*
X145814914Y-90749764D01*
X145814914Y-90749764D01*
G37*
D11*
X146857897Y-93171605D03*
D12*
G36*
X146486666Y-94214588D02*
G01*
X145814914Y-93542836D01*
X147229128Y-92128622D01*
X147900880Y-92800374D01*
X146486666Y-94214588D01*
X146486666Y-94214588D01*
G37*
D11*
X147423583Y-93737290D03*
D12*
G36*
X147052352Y-94780273D02*
G01*
X146380600Y-94108521D01*
X147794814Y-92694307D01*
X148466566Y-93366059D01*
X147052352Y-94780273D01*
X147052352Y-94780273D01*
G37*
D11*
X147989268Y-94302976D03*
D12*
G36*
X147618037Y-95345959D02*
G01*
X146946285Y-94674207D01*
X148360499Y-93259993D01*
X149032251Y-93931745D01*
X147618037Y-95345959D01*
X147618037Y-95345959D01*
G37*
D11*
X148554953Y-94868661D03*
D12*
G36*
X148183722Y-95911644D02*
G01*
X147511970Y-95239892D01*
X148926184Y-93825678D01*
X149597936Y-94497430D01*
X148183722Y-95911644D01*
X148183722Y-95911644D01*
G37*
D11*
X149120639Y-95434347D03*
D12*
G36*
X148749408Y-96477330D02*
G01*
X148077656Y-95805578D01*
X149491870Y-94391364D01*
X150163622Y-95063116D01*
X148749408Y-96477330D01*
X148749408Y-96477330D01*
G37*
D11*
X149686324Y-96000032D03*
D12*
G36*
X149315093Y-97043015D02*
G01*
X148643341Y-96371263D01*
X150057555Y-94957049D01*
X150729307Y-95628801D01*
X149315093Y-97043015D01*
X149315093Y-97043015D01*
G37*
D11*
X150252010Y-96565717D03*
D12*
G36*
X149880779Y-97608700D02*
G01*
X149209027Y-96936948D01*
X150623241Y-95522734D01*
X151294993Y-96194486D01*
X149880779Y-97608700D01*
X149880779Y-97608700D01*
G37*
D11*
X150817695Y-97131403D03*
D12*
G36*
X150446464Y-98174386D02*
G01*
X149774712Y-97502634D01*
X151188926Y-96088420D01*
X151860678Y-96760172D01*
X150446464Y-98174386D01*
X150446464Y-98174386D01*
G37*
D11*
X152868305Y-97131403D03*
D12*
G36*
X151825322Y-96760172D02*
G01*
X152497074Y-96088420D01*
X153911288Y-97502634D01*
X153239536Y-98174386D01*
X151825322Y-96760172D01*
X151825322Y-96760172D01*
G37*
D11*
X153433990Y-96565717D03*
D12*
G36*
X152391007Y-96194486D02*
G01*
X153062759Y-95522734D01*
X154476973Y-96936948D01*
X153805221Y-97608700D01*
X152391007Y-96194486D01*
X152391007Y-96194486D01*
G37*
D11*
X153999676Y-96000032D03*
D12*
G36*
X152956693Y-95628801D02*
G01*
X153628445Y-94957049D01*
X155042659Y-96371263D01*
X154370907Y-97043015D01*
X152956693Y-95628801D01*
X152956693Y-95628801D01*
G37*
D11*
X154565361Y-95434347D03*
D12*
G36*
X153522378Y-95063116D02*
G01*
X154194130Y-94391364D01*
X155608344Y-95805578D01*
X154936592Y-96477330D01*
X153522378Y-95063116D01*
X153522378Y-95063116D01*
G37*
D11*
X155131047Y-94868661D03*
D12*
G36*
X154088064Y-94497430D02*
G01*
X154759816Y-93825678D01*
X156174030Y-95239892D01*
X155502278Y-95911644D01*
X154088064Y-94497430D01*
X154088064Y-94497430D01*
G37*
D11*
X155696732Y-94302976D03*
D12*
G36*
X154653749Y-93931745D02*
G01*
X155325501Y-93259993D01*
X156739715Y-94674207D01*
X156067963Y-95345959D01*
X154653749Y-93931745D01*
X154653749Y-93931745D01*
G37*
D11*
X156262417Y-93737290D03*
D12*
G36*
X155219434Y-93366059D02*
G01*
X155891186Y-92694307D01*
X157305400Y-94108521D01*
X156633648Y-94780273D01*
X155219434Y-93366059D01*
X155219434Y-93366059D01*
G37*
D11*
X156828103Y-93171605D03*
D12*
G36*
X155785120Y-92800374D02*
G01*
X156456872Y-92128622D01*
X157871086Y-93542836D01*
X157199334Y-94214588D01*
X155785120Y-92800374D01*
X155785120Y-92800374D01*
G37*
D11*
X156828103Y-91120995D03*
D12*
G36*
X156456872Y-92163978D02*
G01*
X155785120Y-91492226D01*
X157199334Y-90078012D01*
X157871086Y-90749764D01*
X156456872Y-92163978D01*
X156456872Y-92163978D01*
G37*
D11*
X156262417Y-90555310D03*
D12*
G36*
X155891186Y-91598293D02*
G01*
X155219434Y-90926541D01*
X156633648Y-89512327D01*
X157305400Y-90184079D01*
X155891186Y-91598293D01*
X155891186Y-91598293D01*
G37*
D11*
X155696732Y-89989624D03*
D12*
G36*
X155325501Y-91032607D02*
G01*
X154653749Y-90360855D01*
X156067963Y-88946641D01*
X156739715Y-89618393D01*
X155325501Y-91032607D01*
X155325501Y-91032607D01*
G37*
D11*
X155131047Y-89423939D03*
D12*
G36*
X154759816Y-90466922D02*
G01*
X154088064Y-89795170D01*
X155502278Y-88380956D01*
X156174030Y-89052708D01*
X154759816Y-90466922D01*
X154759816Y-90466922D01*
G37*
D11*
X154565361Y-88858253D03*
D12*
G36*
X154194130Y-89901236D02*
G01*
X153522378Y-89229484D01*
X154936592Y-87815270D01*
X155608344Y-88487022D01*
X154194130Y-89901236D01*
X154194130Y-89901236D01*
G37*
D11*
X153999676Y-88292568D03*
D12*
G36*
X153628445Y-89335551D02*
G01*
X152956693Y-88663799D01*
X154370907Y-87249585D01*
X155042659Y-87921337D01*
X153628445Y-89335551D01*
X153628445Y-89335551D01*
G37*
D11*
X153433990Y-87726883D03*
D12*
G36*
X153062759Y-88769866D02*
G01*
X152391007Y-88098114D01*
X153805221Y-86683900D01*
X154476973Y-87355652D01*
X153062759Y-88769866D01*
X153062759Y-88769866D01*
G37*
D11*
X152868305Y-87161197D03*
D12*
G36*
X152497074Y-88204180D02*
G01*
X151825322Y-87532428D01*
X153239536Y-86118214D01*
X153911288Y-86789966D01*
X152497074Y-88204180D01*
X152497074Y-88204180D01*
G37*
D19*
X128750000Y-90000000D03*
X131250000Y-90000000D03*
X106750000Y-110000000D03*
X109250000Y-110000000D03*
X106750000Y-96000000D03*
X109250000Y-96000000D03*
X106750000Y-112500000D03*
X109250000Y-112500000D03*
X123750000Y-96000000D03*
X126250000Y-96000000D03*
D23*
X152265000Y-103000000D03*
X151455000Y-103000000D03*
X150645000Y-103000000D03*
X149835000Y-103000000D03*
X149025000Y-103000000D03*
X148215000Y-103000000D03*
X147405000Y-103000000D03*
X146595000Y-103000000D03*
X145785000Y-103000000D03*
X144975000Y-103000000D03*
X144165000Y-103000000D03*
X143355000Y-103000000D03*
X142545000Y-103000000D03*
X141735000Y-103000000D03*
D24*
X152265000Y-103000000D03*
X141735000Y-103000000D03*
D20*
X161650000Y-78000000D03*
X164350000Y-78000000D03*
X161650000Y-80000000D03*
X164350000Y-80000000D03*
X161650000Y-82000000D03*
X164350000Y-82000000D03*
X161650000Y-84000000D03*
X164350000Y-84000000D03*
X161650000Y-86000000D03*
X164350000Y-86000000D03*
X161650000Y-88000000D03*
X164350000Y-88000000D03*
D25*
X136120000Y-66980000D03*
X133120000Y-66980000D03*
D26*
X136870000Y-68740000D03*
X133870000Y-68740000D03*
X132370000Y-68740000D03*
D27*
X138270000Y-65880000D03*
X130970000Y-65880000D03*
X130970000Y-68090000D03*
X138270000Y-68090000D03*
D28*
X136850000Y-109000000D03*
X137550000Y-109000000D03*
X138250000Y-109000000D03*
X138950000Y-109000000D03*
X139650000Y-109000000D03*
X140350000Y-109000000D03*
X141050000Y-109000000D03*
X141750000Y-109000000D03*
X142450000Y-109000000D03*
X143150000Y-109000000D03*
X143850000Y-109000000D03*
X144550000Y-109000000D03*
X145250000Y-109000000D03*
X145950000Y-109000000D03*
X146650000Y-109000000D03*
X147350000Y-109000000D03*
X148050000Y-109000000D03*
X148750000Y-109000000D03*
X149450000Y-109000000D03*
X150150000Y-109000000D03*
X150850000Y-109000000D03*
X151550000Y-109000000D03*
X152250000Y-109000000D03*
X152950000Y-109000000D03*
X153650000Y-109000000D03*
X154350000Y-109000000D03*
X155050000Y-109000000D03*
X155750000Y-109000000D03*
X156450000Y-109000000D03*
X157150000Y-109000000D03*
D24*
X135250000Y-110300000D03*
X158750000Y-110300000D03*
D29*
X105000000Y-70000000D03*
D30*
X105000000Y-67460000D03*
X107540000Y-70000000D03*
X107540000Y-67460000D03*
X110080000Y-70000000D03*
X110080000Y-67460000D03*
M02*
